<?xml version="1.0" encoding="UTF-8" standalone="no"?>
<!-- Created with Inkscape (http://www.inkscape.org/) -->

<svg width="370" height="370" viewBox="0 0 370 370" version="1.1" id="svg1" inkscape:version="1.3.2 (091e20e, 2023-11-25, custom)" sodipodi:docname="image_accueil.svg" xmlns:inkscape="http://www.inkscape.org/namespaces/inkscape" xmlns:sodipodi="http://sodipodi.sourceforge.net/DTD/sodipodi-0.dtd" xmlns="http://www.w3.org/2000/svg" xmlns:svg="http://www.w3.org/2000/svg">
  <sodipodi:namedview id="namedview1" pagecolor="#ffffff" bordercolor="#000000" borderopacity="0.25" inkscape:showpageshadow="2" inkscape:pageopacity="0.0" inkscape:pagecheckerboard="0" inkscape:deskcolor="#d1d1d1" inkscape:document-units="px" inkscape:zoom="0.9296875" inkscape:cx="256.53782" inkscape:cy="254.38655" inkscape:window-width="1920" inkscape:window-height="991" inkscape:window-x="4791" inkscape:window-y="951" inkscape:window-maximized="1" inkscape:current-layer="layer1"></sodipodi:namedview>
  <defs id="defs1">
    <rect x="210.21661" y="318.54913" width="154.76071" height="170.23679" id="rect10"></rect>
  </defs>
  <g inkscape:label="Calque 1" inkscape:groupmode="layer" id="layer1">
    <rect style="fill: #d40000; fill-rule: evenodd; stroke-width: 1px" id="carre_rouge" width="376.29828" height="336.60455" x="-4.3193283" y="16.050423" rx="2.3047967" ry="2.6295021"></rect>
    <rect style="fill: #f2f2f2; fill-rule: evenodd; stroke-width: .711909px" id="rect9" width="123.80856" height="110.91184" x="48.58979" y="68.166779" rx="2.243356" ry="2.6295021"></rect>
    <rect style="fill: #f2f2f2; fill-rule: evenodd; stroke-width: 1px" id="rect9-1" width="210.62122" height="201.18892" x="112.44121" y="101.94765" rx="3.8163626" ry="4.7697945"></rect>
    <path d="m 87.83933,150.74731 c -0.84836,-4.47519 -7.30394,-19.81399 -2.26532,-13.55386 l -10.37969,0.43962 -0.45724,12.86369 -1.80704,0.29354 c 1.21013,-11.07343 1.10438,-21.11495 6.30694,-32.84057 0.74403,-1.73679 1.58147,-2.12683 2.54256,-0.73387 3.95142,10.3927 5.14966,22.27409 7.69391,33.42767 z m -4.08927,-15.37032 c -0.37228,-2.78214 -0.9263,-13.09041 -1.69124,-15.23882 -0.93115,-3.16563 -1.81188,-3.1259 -2.20745,-2.23278 -1.09211,2.36971 -1.84406,4.5239 -2.5742,7.31907 -1.15147,3.51765 -1.74074,7.76836 -2.23353,11.13685 z" id="text2" style="-inkscape-font-specification: &quot;Open Sans, Medium&quot;; opacity: .867; fill: #d40000; stroke: #d40000; stroke-width: .299999px; stroke-linecap: round; paint-order: markers fill stroke; stroke-opacity: 1; fill-opacity: 1; font-family: Open Sans; font-size: 21.3333px; font-weight: 500" aria-label="A" sodipodi:nodetypes="ccccccccccccccc"></path>
    <path d="m 158.54423,132.4701 c -0.58056,-3.28665 -0.96967,-6.66751 -1.55023,-9.95416 -2.29376,0.24657 -5.84931,-0.69218 -6.88131,0.73972 l -0.53478,9.03043 -1.23661,0.21559 c 0.82813,-8.1325 0.75577,-15.50715 4.31606,-24.11862 0.50915,-1.27553 1.08225,-1.56198 1.73996,-0.53897 2.70408,7.63256 3.52408,16.35844 5.26519,24.5498 z m -2.53548,-12.30917 c -0.25477,-2.04324 -0.89684,-8.59283 -1.42031,-10.17066 -0.63723,-2.32489 -1.23994,-2.29571 -1.51065,-1.63978 -0.74736,1.74035 -1.26195,3.32242 -1.76161,5.37524 -0.78799,2.58341 -1.19124,5.7052 -1.52846,8.17907 2.08019,-0.57517 6.43143,0.98312 6.22103,-1.74387 z" id="text2-9" style="-inkscape-font-specification: &quot;Open Sans, Medium&quot;; opacity: .867; fill: #d40000; stroke: #d40000; stroke-width: .299999px; stroke-linecap: round; paint-order: markers fill stroke; stroke-opacity: 1; fill-opacity: 1; font-family: Open Sans; font-size: 21.3333px; font-weight: 500" aria-label="A" sodipodi:nodetypes="ccccccccccccccc"></path>
    <path d="m 101.38254,108.83844 c 1.5038,0 2.63781,0.55582 3.40204,1.66744 0.77244,1.10005 1.11862,2.86656 1.15866,5.29759 l 0.57525,34.92669 h -2.45291 c -0.19175,-11.49749 0.87377,-25.69419 0.68202,-33.55453 -0.0367,-1.50443 -0.0149,-5.04607 -0.45861,-5.79874 -0.43552,-0.75266 -2.37006,-1.12899 -3.24111,-1.12899 -1.23262,0 -2.20266,1.26377 -2.75323,2.3175 -0.54236,1.04215 -0.90549,12.7952 -0.86057,14.82061 l 0.5177,23.34415 -1.68869,0.59924 0.31223,-23.86253 c 0.0132,-1.00724 0.53837,-14.54412 -1.12313,-15.20415 -0.19722,-0.67161 -1.19494,-1.02793 -1.58116,-1.36373 -0.38622,-0.33581 -0.98633,-0.0113 -1.46682,0.12267 -0.79375,0.22136 -1.78581,0.59215 -2.2953,1.11322 -0.50126,0.5095 -0.63161,0.89949 -0.8617,1.9069 -0.22187,1.00741 -0.41285,12.35493 -0.37985,13.8132 l 0.51771,22.87519 H 86.9075 c 0.0824,-10.73939 0.25019,-23.21616 0.39099,-33.95415 -0.0369,-5.04246 1.03807,-5.4456 1.35924,-5.78955 0.41909,-0.44001 1.09256,-1.06479 1.60204,-1.2848 0.50948,-0.23159 1.98905,-0.86322 2.55606,-0.86322 1.01896,0 1.87769,0.26053 2.57618,0.78161 0.69848,0.52107 1.21207,1.31427 1.54077,2.37957 h 0.16024 c 0.43553,-1.07689 1.0354,-1.87008 1.79963,-2.37957 0.77244,-0.52108 1.60241,-0.78161 2.48989,-0.78161 z" id="text1-42-8" style="-inkscape-font-specification: &quot;Open Sans, Medium&quot;; white-space: pre; opacity: .867; fill: #d40000; stroke: #d40000; stroke-width: .300001px; stroke-linecap: round; paint-order: markers fill stroke; stroke-opacity: 1; fill-opacity: 1; font-family: Open Sans; font-size: 21.3333px; font-weight: 500" aria-label="Ramponeau" sodipodi:nodetypes="scsccscscsccscsaccscccccsscccss"></path>
    <path d="m 129.84675,112.59536 c 0.20523,1.54802 0.16586,2.87117 -0.12997,4.11016 -0.2876,1.22742 -0.65221,2.03819 -1.2696,3.12645 -0.51812,0.83729 -1.14452,1.4796 -1.87917,1.92692 -1.06717,0.31478 -2.01029,0.20156 -2.94037,0.0184 -0.76422,-0.4516 -1.42573,-1.10004 -1.98452,-1.94534 -0.55878,-0.85688 -0.9902,-1.89903 -1.29425,-3.12645 -0.30404,-1.239 -0.31606,-2.55044 -0.09,-3.99963 0.37144,-2.38121 0.0997,-0.68267 0.4243,-2.30958 0.50948,-1.48216 0.52648,-1.63282 1.48998,-2.61852 0.95322,-0.9969 0.0682,-0.3548 1.77497,-1.37217 2.01194,-1.19924 4.15313,-0.13413 5.42352,4.06438 0.45836,1.51482 0.18748,-0.0442 0.47511,2.12535 z m -7.41475,-0.11054 c 0,1.47059 0.13148,2.73854 0.39444,3.80385 0.27118,1.05372 0.68205,1.86429 1.23262,2.43168 0.59357,0.43846 1.46784,0.32016 1.92288,0 0.61621,-0.43357 1.24634,-1.07272 1.82095,-1.84215 0.86436,-1.15742 0.88013,-1.73174 1.02641,-2.62172 0.10951,-0.66636 0.0919,-0.10945 0.2342,-1.66744 0.0377,-1.15268 -0.8492,-4.52544 -2.23105,-5.52339 -0.48499,-0.35025 -1.88084,-0.20265 -2.69722,0.36629 -1.77996,1.24046 -1.74196,1.18308 -1.70323,5.05288 z" style="-inkscape-font-specification: &quot;Open Sans, Medium&quot;; white-space: pre; opacity: .867; fill: #d40000; stroke: #d40000; stroke-width: .300001px; stroke-linecap: round; paint-order: markers fill stroke; stroke-opacity: 1; fill-opacity: 1; font-family: Open Sans; font-size: 21.3333px; font-weight: 500" id="path1" sodipodi:nodetypes="sccccccsccssssccscsscssc"></path>
    <path d="m 85.29394,107.3096 c 0,1.17766 -0.0873,2.22975 -0.26191,3.15629 -0.16976,0.91788 -0.41955,1.69721 -0.74938,2.33799 -0.32497,0.63212 -0.71784,1.11704 -1.17862,1.45475 -0.46078,0.32905 -0.98219,0.49357 -1.56422,0.49357 -0.54324,0 -1.04282,-0.16452 -1.49875,-0.49357 -0.45108,-0.33771 -0.84153,-0.82263 -1.17135,-1.45475 -0.32982,-0.64078 -0.58446,-1.42011 -0.76392,-2.33799 -0.17946,-0.92654 -0.26919,-1.97863 -0.26919,-3.15629 0,-1.56731 0.15036,-2.90083 0.45107,-4.00055 0.30072,-1.10838 0.72998,-1.94833 1.28776,-2.51984 0.56264,-0.58017 1.23198,-0.87025 2.00803,-0.87025 0.73725,0 1.38476,0.29008 1.94254,0.87025 0.55779,0.58017 0.99189,1.42011 1.30231,2.51984 0.31042,1.09972 0.46563,2.43324 0.46563,4.00055 z m -6.85348,0.039 c 0,1.09972 0.57961,3.60657 0.73482,4.40322 0.18948,0.85668 1.87533,2.50644 1.55695,1.42877 0.32982,0.4243 0.92883,0.20782 1.44781,0.20782 0.50929,0 1.0598,-0.67975 1.38962,-1.10405 0.32982,-0.4243 0.55051,-1.53701 0.70572,-2.325 0.15521,-0.79665 0.36377,-1.9007 0.36377,-3.00042 0,-1.09106 -0.14308,-2.33799 -0.29829,-3.11732 -0.15521,-0.77933 -0.72512,-1.88338 -1.05495,-2.29902 -0.32496,-0.41565 -1.20772,0.54553 -1.73155,0.54553 -0.76635,0 -1.98378,-0.74903 -2.3427,0.16885 -0.35407,0.90922 -0.7712,3.43771 -0.7712,5.09162 z" style="-inkscape-font-specification: &quot;Open Sans, Medium&quot;; white-space: pre; opacity: .867; fill: #d40000; stroke: #d40000; stroke-width: .300001px; stroke-linecap: round; paint-order: markers fill stroke; stroke-opacity: 1; fill-opacity: 1; font-family: Open Sans; font-size: 21.3333px; font-weight: 500" id="path1-7" sodipodi:nodetypes="scccscccsccsssssccsscsscscs"></path>
    <path d="m 95.85357,98.29594 c 0,1.17766 -0.0873,2.22975 -0.26192,3.15629 -0.16976,0.91788 -0.41955,1.69721 -0.74938,2.33799 -0.32496,0.63212 -0.71784,1.11704 -1.17862,1.45475 -0.46078,0.32905 -0.98219,0.49357 -1.56422,0.49357 -0.54324,0 -1.04282,-0.16452 -1.49875,-0.49357 -0.45107,-0.33771 -0.84152,-0.82263 -1.17135,-1.45475 -0.32982,-0.64078 -0.58446,-1.42011 -0.76392,-2.33799 -0.17946,-0.92654 -0.26919,-1.97863 -0.26919,-3.15629 0,-1.56731 0.15036,-2.90083 0.45108,-4.00056 0.30072,-1.10837 0.72997,-1.94832 1.28775,-2.51983 0.56264,-0.58017 1.23198,-0.87025 2.00803,-0.87025 0.73725,0 1.38476,0.29008 1.94255,0.87025 0.55778,0.58017 0.99189,1.42011 1.3023,2.51983 0.31043,1.09973 0.46564,2.43325 0.46564,4.00056 z m -6.85349,0.039 c 0,1.09972 0.57961,3.60657 0.73482,4.40322 0.18949,0.85668 1.87533,2.50644 1.55695,1.42877 0.32982,0.4243 0.92884,0.20782 1.44782,0.20782 0.50928,0 1.05979,-0.67975 1.38961,-1.10405 0.32983,-0.4243 0.55052,-1.53701 0.70572,-2.325 0.15521,-0.79665 0.36377,-1.9007 0.36377,-3.00042 0,-1.09106 -0.14308,-2.33799 -0.29829,-3.11732 -0.15521,-0.77933 -0.72512,-1.88338 -1.05494,-2.29903 -0.32497,-0.41564 -1.20773,0.54554 -1.73156,0.54554 -0.76635,0 -1.98378,-0.74903 -2.3427,0.16885 -0.35407,0.90922 -0.7712,3.43771 -0.7712,5.09162 z" style="-inkscape-font-specification: &quot;Open Sans, Medium&quot;; white-space: pre; opacity: .867; fill: #d40000; stroke: #d40000; stroke-width: .300001px; stroke-linecap: round; paint-order: markers fill stroke; stroke-opacity: 1; fill-opacity: 1; font-family: Open Sans; font-size: 21.3333px; font-weight: 500" id="path1-7-1" sodipodi:nodetypes="scccscccsccsssssccsscsscscs"></path>
    <path d="m 105.32011,98.29594 c 0,1.17766 -0.0873,2.22975 -0.26192,3.15629 -0.16975,0.91788 -0.41955,1.69721 -0.74937,2.33799 -0.32497,0.63212 -0.71784,1.11704 -1.17862,1.45475 -0.46079,0.32905 -0.98219,0.49357 -1.56423,0.49357 -0.54323,0 -1.04282,-0.16452 -1.49874,-0.49357 -0.45108,-0.33771 -0.84153,-0.82263 -1.17135,-1.45475 -0.32982,-0.64078 -0.58446,-1.42011 -0.76393,-2.33799 -0.17946,-0.92654 -0.26919,-1.97863 -0.26919,-3.15629 0,-1.56731 0.15036,-2.90083 0.45108,-4.00056 0.30072,-1.10837 0.72997,-1.94832 1.28776,-2.51983 0.56263,-0.58017 1.23198,-0.87025 2.00803,-0.87025 0.73724,0 1.38475,0.29008 1.94254,0.87025 0.55779,0.58017 0.99189,1.42011 1.30231,2.51983 0.31042,1.09973 0.46563,2.43325 0.46563,4.00056 z m -6.85349,0.039 c 0,1.09972 0.57962,3.60657 0.73483,4.40322 0.18948,0.85668 1.87532,2.50644 1.55695,1.42877 0.32982,0.4243 0.92883,0.20782 1.44781,0.20782 0.50928,0 1.05979,-0.67975 1.38961,-1.10405 0.32983,-0.4243 0.55052,-1.53701 0.70572,-2.325 0.15521,-0.79665 0.36378,-1.9007 0.36378,-3.00042 0,-1.09106 -0.14309,-2.33799 -0.29829,-3.11732 -0.15521,-0.77933 -0.72512,-1.88338 -1.05495,-2.29903 -0.32497,-0.41564 -1.20772,0.54554 -1.73156,0.54554 -0.76635,0 -1.98377,-0.74903 -2.3427,0.16885 -0.35407,0.90922 -0.7712,3.43771 -0.7712,5.09162 z" style="-inkscape-font-specification: &quot;Open Sans, Medium&quot;; white-space: pre; opacity: .867; fill: #d40000; stroke: #d40000; stroke-width: .300001px; stroke-linecap: round; paint-order: markers fill stroke; stroke-opacity: 1; fill-opacity: 1; font-family: Open Sans; font-size: 21.3333px; font-weight: 500" id="path1-7-1-5" sodipodi:nodetypes="scccscccsccsssssccsscsscscs"></path>
    <path d="m 114.19191,105.98871 c 0,1.17765 -0.0873,2.22975 -0.26191,3.15628 -0.16976,0.91788 -0.41955,1.69721 -0.74938,2.33799 -0.32497,0.63212 -0.71784,1.11704 -1.17862,1.45475 -0.46078,0.32905 -0.98219,0.49358 -1.56422,0.49358 -0.54324,0 -1.04282,-0.16453 -1.49875,-0.49358 -0.45108,-0.33771 -0.84153,-0.82263 -1.17135,-1.45475 -0.32982,-0.64078 -0.58446,-1.42011 -0.76392,-2.33799 -0.17946,-0.92653 -0.26919,-1.97863 -0.26919,-3.15628 0,-1.56732 0.15036,-2.90084 0.45108,-4.00056 0.30071,-1.10838 0.72997,-1.94833 1.28775,-2.51984 0.56264,-0.58016 1.23198,-0.87025 2.00803,-0.87025 0.73725,0 1.38476,0.29009 1.94254,0.87025 0.55779,0.58017 0.99189,1.42012 1.30231,2.51984 0.31043,1.09972 0.46563,2.43324 0.46563,4.00056 z m -6.85348,0.039 c 0,1.09972 0.57961,3.60656 0.73482,4.40321 0.18949,0.85669 1.87533,2.50644 1.55695,1.42877 0.32982,0.42431 0.92883,0.20782 1.44782,0.20782 0.50928,0 1.05979,-0.67975 1.38961,-1.10405 0.32982,-0.4243 0.55051,-1.53701 0.70572,-2.325 0.15521,-0.79665 0.36377,-1.9007 0.36377,-3.00042 0,-1.09106 -0.14308,-2.33799 -0.29829,-3.11732 -0.15521,-0.77933 -0.72512,-1.88338 -1.05495,-2.29902 -0.32496,-0.41565 -1.20772,0.54553 -1.73155,0.54553 -0.76635,0 -1.98378,-0.74902 -2.3427,0.16885 -0.35407,0.90922 -0.7712,3.43772 -0.7712,5.09163 z" style="-inkscape-font-specification: &quot;Open Sans, Medium&quot;; white-space: pre; opacity: .867; fill: #d40000; stroke: #d40000; stroke-width: .300001px; stroke-linecap: round; paint-order: markers fill stroke; stroke-opacity: 1; fill-opacity: 1; font-family: Open Sans; font-size: 21.3333px; font-weight: 500" id="path1-7-1-5-8" sodipodi:nodetypes="scccscccsccsssssccsscsscscs"></path>
    <path d="m 155.01128,100.11345 c 0,0.6628 -0.0603,1.25494 -0.18109,1.77641 -0.11739,0.5166 -0.2901,0.95522 -0.51817,1.31587 -0.22468,0.35577 -0.49634,0.62869 -0.81495,0.81875 -0.3186,0.1852 -0.67913,0.2778 -1.08156,0.2778 -0.37562,0 -0.72106,-0.0926 -1.0363,-0.2778 -0.31189,-0.19006 -0.58188,-0.46298 -0.80992,-0.81875 -0.22805,-0.36065 -0.40413,-0.79927 -0.52821,-1.31587 -0.12409,-0.52147 -0.18614,-1.11361 -0.18614,-1.77641 0,-0.88212 0.10401,-1.63265 0.3119,-2.25159 0.20793,-0.62382 0.50473,-1.09655 0.89041,-1.41821 0.38903,-0.32653 0.85185,-0.48979 1.38845,-0.48979 0.50976,0 0.95748,0.16326 1.34314,0.48979 0.38568,0.32653 0.68584,0.79927 0.90049,1.41821 0.21463,0.61894 0.32195,1.36947 0.32195,2.25159 z m -4.73881,0.0219 c 0,0.61894 0.40078,2.02984 0.5081,2.47821 0.13101,0.48216 1.29668,1.41067 1.07654,0.80414 0.22805,0.2388 0.64224,0.11697 1.00109,0.11697 0.35214,0 0.73278,-0.38258 0.96083,-0.62138 0.22806,-0.23881 0.38065,-0.86506 0.48798,-1.30856 0.10732,-0.44836 0.25151,-1.06974 0.25151,-1.68869 0,-0.61407 -0.0989,-1.31586 -0.20625,-1.75448 -0.10733,-0.43862 -0.50137,-1.06 -0.72943,-1.29394 -0.2247,-0.23393 -0.83507,0.30704 -1.19727,0.30704 -0.52989,0 -1.37167,-0.42156 -1.61985,0.095 -0.24481,0.51172 -0.53325,1.93481 -0.53325,2.86566 z" style="-inkscape-font-specification: &quot;Open Sans, Medium&quot;; white-space: pre; opacity: .867; fill: #d40000; stroke: #d40000; stroke-width: .300001px; stroke-linecap: round; paint-order: markers fill stroke; stroke-opacity: 1; fill-opacity: 1; font-family: Open Sans; font-size: 21.3333px; font-weight: 500" id="path1-7-1-5-8-6" sodipodi:nodetypes="scccscccsccsssssccsscsscscs"></path>
    <path d="m 157.07022,130.47706 c 0,0.6628 -0.0603,1.25494 -0.18109,1.77641 -0.11739,0.5166 -0.29011,0.95522 -0.51817,1.31587 -0.22469,0.35577 -0.49634,0.62869 -0.81495,0.81875 -0.31861,0.1852 -0.67913,0.2778 -1.08156,0.2778 -0.37562,0 -0.72106,-0.0926 -1.03631,-0.2778 -0.31188,-0.19006 -0.58187,-0.46298 -0.80992,-0.81875 -0.22805,-0.36065 -0.40412,-0.79927 -0.52821,-1.31587 -0.12408,-0.52147 -0.18613,-1.11361 -0.18613,-1.77641 0,-0.88212 0.10401,-1.63265 0.3119,-2.25159 0.20793,-0.62382 0.50473,-1.09655 0.89041,-1.41821 0.38902,-0.32653 0.85184,-0.48979 1.38844,-0.48979 0.50976,0 0.95748,0.16325 1.34315,0.48979 0.38568,0.32653 0.68584,0.79927 0.90048,1.41821 0.21463,0.61894 0.32196,1.36947 0.32196,2.25159 z m -4.73881,0.0219 c 0,0.61895 0.40078,2.02985 0.50809,2.47821 0.13102,0.48216 1.29668,1.41067 1.07655,0.80414 0.22805,0.23881 0.64223,0.11697 1.00109,0.11697 0.35214,0 0.73278,-0.38257 0.96083,-0.62138 0.22806,-0.2388 0.38065,-0.86506 0.48797,-1.30855 0.10733,-0.44837 0.25152,-1.06975 0.25152,-1.68869 0,-0.61407 -0.0989,-1.31587 -0.20625,-1.75449 -0.10733,-0.43862 -0.50137,-1.06 -0.72944,-1.29393 -0.2247,-0.23393 -0.83506,0.30704 -1.19726,0.30704 -0.52989,0 -1.37167,-0.42157 -1.61985,0.095 -0.24482,0.51173 -0.53325,1.93481 -0.53325,2.86566 z" style="-inkscape-font-specification: &quot;Open Sans, Medium&quot;; white-space: pre; opacity: .867; fill: #d40000; stroke: #d40000; stroke-width: .300001px; stroke-linecap: round; paint-order: markers fill stroke; stroke-opacity: 1; fill-opacity: 1; font-family: Open Sans; font-size: 21.3333px; font-weight: 500" id="path1-7-1-5-8-6-0" sodipodi:nodetypes="scccscccsccsssssccsscsscscs"></path>
    <path d="m 166.53676,127.14218 c 0,0.6628 -0.0603,1.25494 -0.18109,1.77641 -0.11739,0.5166 -0.2901,0.95522 -0.51817,1.31586 -0.22468,0.35577 -0.49634,0.62869 -0.81495,0.81876 -0.3186,0.1852 -0.67913,0.2778 -1.08156,0.2778 -0.37562,0 -0.72106,-0.0926 -1.0363,-0.2778 -0.31189,-0.19007 -0.58188,-0.46299 -0.80992,-0.81876 -0.22805,-0.36064 -0.40413,-0.79926 -0.52821,-1.31586 -0.12409,-0.52147 -0.18614,-1.11361 -0.18614,-1.77641 0,-0.88212 0.10401,-1.63265 0.3119,-2.25159 0.20793,-0.62382 0.50473,-1.09656 0.89041,-1.41821 0.38903,-0.32653 0.85185,-0.4898 1.38845,-0.4898 0.50976,0 0.95748,0.16326 1.34314,0.4898 0.38568,0.32653 0.68584,0.79926 0.90049,1.41821 0.21463,0.61894 0.32195,1.36947 0.32195,2.25159 z m -4.73881,0.0219 c 0,0.61894 0.40078,2.02984 0.5081,2.47821 0.13101,0.48216 1.29668,1.41067 1.07654,0.80414 0.22805,0.23881 0.64224,0.11697 1.00109,0.11697 0.35214,0 0.73278,-0.38257 0.96083,-0.62138 0.22806,-0.2388 0.38065,-0.86506 0.48798,-1.30855 0.10732,-0.44837 0.25151,-1.06975 0.25151,-1.68869 0,-0.61407 -0.0989,-1.31587 -0.20625,-1.75449 -0.10733,-0.43862 -0.50137,-1.06 -0.72943,-1.29393 -0.2247,-0.23393 -0.83507,0.30703 -1.19727,0.30703 -0.52989,0 -1.37167,-0.42156 -1.61985,0.095 -0.24481,0.51173 -0.53325,1.93481 -0.53325,2.86566 z" style="-inkscape-font-specification: &quot;Open Sans, Medium&quot;; white-space: pre; opacity: .867; fill: #d40000; stroke: #d40000; stroke-width: .300001px; stroke-linecap: round; paint-order: markers fill stroke; stroke-opacity: 1; fill-opacity: 1; font-family: Open Sans; font-size: 21.3333px; font-weight: 500" id="path1-7-1-5-8-6-0-2" sodipodi:nodetypes="scccscccsccsssssccsscsscscs"></path>
    <path d="m 120.4324,105.90177 c 0,0.6628 -0.0604,1.25494 -0.1811,1.77641 -0.11738,0.5166 -0.2901,0.95522 -0.51816,1.31587 -0.22469,0.35577 -0.49634,0.62869 -0.81495,0.81875 -0.31861,0.1852 -0.67913,0.2778 -1.08156,0.2778 -0.37563,0 -0.72106,-0.0926 -1.03631,-0.2778 -0.31188,-0.19006 -0.58187,-0.46298 -0.80992,-0.81875 -0.22805,-0.36065 -0.40413,-0.79927 -0.52821,-1.31587 -0.12408,-0.52147 -0.18613,-1.11361 -0.18613,-1.77641 0,-0.88212 0.10401,-1.63265 0.31189,-2.25159 0.20794,-0.62382 0.50474,-1.09655 0.89042,-1.41821 0.38902,-0.32653 0.85184,-0.48979 1.38844,-0.48979 0.50976,0 0.95748,0.16326 1.34315,0.48979 0.38568,0.32653 0.68584,0.79927 0.90048,1.41821 0.21463,0.61894 0.32196,1.36947 0.32196,2.25159 z m -4.73881,0.0219 c 0,0.61894 0.40078,2.02984 0.50809,2.47821 0.13102,0.48215 1.29668,1.41067 1.07655,0.80414 0.22805,0.2388 0.64223,0.11697 1.00109,0.11697 0.35214,0 0.73278,-0.38258 0.96083,-0.62138 0.22806,-0.23881 0.38065,-0.86506 0.48797,-1.30856 0.10733,-0.44837 0.25152,-1.06975 0.25152,-1.68869 0,-0.61407 -0.0989,-1.31586 -0.20626,-1.75448 -0.10732,-0.43862 -0.50137,-1.06 -0.72943,-1.29394 -0.2247,-0.23393 -0.83506,0.30704 -1.19727,0.30704 -0.52989,0 -1.37166,-0.42156 -1.61984,0.095 -0.24482,0.51172 -0.53325,1.93481 -0.53325,2.86566 z" style="-inkscape-font-specification: &quot;Open Sans, Medium&quot;; white-space: pre; opacity: .867; fill: #d40000; stroke: #d40000; stroke-width: .300001px; stroke-linecap: round; paint-order: markers fill stroke; stroke-opacity: 1; fill-opacity: 1; font-family: Open Sans; font-size: 21.3333px; font-weight: 500" id="path1-7-1-5-8-6-0-2-5" sodipodi:nodetypes="scccscccsccsssssccsscsscscs"></path>
    <path d="m 144.43725,104.66061 c 0,0.6628 -0.0603,1.25494 -0.1811,1.77641 -0.11738,0.5166 -0.2901,0.95522 -0.51816,1.31587 -0.22469,0.35577 -0.49634,0.62869 -0.81495,0.81876 -0.31861,0.18519 -0.67913,0.27779 -1.08156,0.27779 -0.37562,0 -0.72106,-0.0926 -1.03631,-0.27779 -0.31188,-0.19007 -0.58187,-0.46299 -0.80992,-0.81876 -0.22805,-0.36065 -0.40412,-0.79927 -0.52821,-1.31587 -0.12408,-0.52147 -0.18613,-1.11361 -0.18613,-1.77641 0,-0.88212 0.10401,-1.63265 0.3119,-2.25159 0.20793,-0.62382 0.50473,-1.09655 0.89041,-1.41821 0.38902,-0.32653 0.85184,-0.48979 1.38844,-0.48979 0.50976,0 0.95748,0.16326 1.34315,0.48979 0.38568,0.32653 0.68584,0.79927 0.90048,1.41821 0.21463,0.61894 0.32196,1.36947 0.32196,2.25159 z m -4.73881,0.0219 c 0,0.61894 0.40078,2.02984 0.50809,2.47821 0.13102,0.48216 1.29668,1.41067 1.07655,0.80414 0.22805,0.2388 0.64223,0.11697 1.00109,0.11697 0.35214,0 0.73278,-0.38258 0.96083,-0.62138 0.22806,-0.23881 0.38065,-0.86506 0.48797,-1.30856 0.10733,-0.44837 0.25152,-1.06975 0.25152,-1.68869 0,-0.61407 -0.0989,-1.31586 -0.20625,-1.75448 -0.10733,-0.43862 -0.50138,-1.06 -0.72944,-1.29394 -0.2247,-0.23393 -0.83506,0.30704 -1.19727,0.30704 -0.52989,0 -1.37166,-0.42156 -1.61984,0.095 -0.24482,0.51172 -0.53325,1.93481 -0.53325,2.86566 z" style="-inkscape-font-specification: &quot;Open Sans, Medium&quot;; white-space: pre; opacity: .867; fill: #d40000; stroke: #d40000; stroke-width: .300001px; stroke-linecap: round; paint-order: markers fill stroke; stroke-opacity: 1; fill-opacity: 1; font-family: Open Sans; font-size: 21.3333px; font-weight: 500" id="path1-7-1-5-8-6-7" sodipodi:nodetypes="scccscccsccsssssccsscsscscs"></path>
    <path d="m 62.32115,127.1177 c 0,0.79737 -0.0549,1.50972 -0.16457,2.13706 -0.10666,0.62148 -0.26362,1.14915 -0.47086,1.58301 -0.20418,0.428 -0.45104,0.75633 -0.74056,0.98499 -0.28952,0.22279 -0.61714,0.33419 -0.98284,0.33419 -0.34134,0 -0.65524,-0.1114 -0.94171,-0.33419 -0.28343,-0.22866 -0.52876,-0.55699 -0.736,-0.98499 -0.20723,-0.43386 -0.36723,-0.96153 -0.47999,-1.58301 -0.11276,-0.62734 -0.16914,-1.33969 -0.16914,-2.13706 0,-1.0612 0.0945,-1.9641 0.28342,-2.70871 0.18895,-0.75046 0.45867,-1.31917 0.80914,-1.70613 0.35352,-0.39282 0.77409,-0.58923 1.2617,-0.58923 0.46324,0 0.87009,0.19641 1.22056,0.58923 0.35047,0.39282 0.62324,0.96153 0.81828,1.70613 0.19505,0.74461 0.29257,1.64751 0.29257,2.70871 z m -4.30625,0.0264 c 0,0.7446 0.36419,2.44194 0.46171,2.98134 0.11906,0.58004 1.17833,1.69706 0.97828,0.96739 0.20724,0.28729 0.58361,0.14072 0.90971,0.14072 0.31999,0 0.66589,-0.46025 0.87313,-0.74754 0.20724,-0.28728 0.3459,-1.04068 0.44343,-1.57421 0.0975,-0.5394 0.22856,-1.28693 0.22856,-2.03153 0,-0.73874 -0.0899,-1.58301 -0.18742,-2.11068 -0.0975,-0.52767 -0.45562,-1.2752 -0.66285,-1.55663 -0.20419,-0.28142 -0.75885,0.36937 -1.08799,0.36937 -0.48152,0 -1.24647,-0.50715 -1.47199,0.11432 -0.22247,0.61561 -0.48457,2.32761 -0.48457,3.44744 z" style="-inkscape-font-specification: &quot;Open Sans, Medium&quot;; white-space: pre; opacity: .867; fill: #d40000; stroke: #d40000; stroke-width: .300001px; stroke-linecap: round; paint-order: markers fill stroke; stroke-opacity: 1; fill-opacity: 1; font-family: Open Sans; font-size: 21.3333px; font-weight: 500" id="path1-7-1-5-4" sodipodi:nodetypes="scccscccsccsssssccsscsscscs"></path>
    <path d="m 67.91282,125.33647 c 1.44626,-0.0983 1.75722,0.28029 2.77071,0.68752 0.99431,0.52107 1.73389,1.32005 2.21872,2.39694 0.48483,1.06531 0.72724,2.4201 0.72724,4.06438 0,1.2969 -0.16846,2.39115 -0.50537,3.28277 -0.33692,0.89161 -0.78066,1.62112 -1.33123,2.18851 -0.54236,0.56739 -1.1258,1.0132 -1.75032,1.33742 l 6.0302,11.43615 h -2.89666 l -4.38813,-10.38675 h -3.31575 v 10.38675 h -2.52687 l 0.39752,-22.59291 c 1.52601,-0.50943 2.57804,-2.66535 4.56994,-2.80078 z m 0.20457,1.23328 c -1.00652,0.0408 -1.88515,0.55019 -2.64516,1.49419 -1.56301,2.98062 -0.7416,6.12789 0,9.30935 l 4.07501,-0.51232 c 1.416,-0.17802 1.47234,-0.49938 2.12974,-1.2752 0.6574,-0.7874 1.21144,-1.74381 0.9861,-3.47383 -0.19902,-1.52793 -0.80367,-2.83184 -1.25111,-3.39566 -0.48873,-0.65191 -2.42663,-2.18174 -3.29458,-2.14653 z" style="-inkscape-font-specification: &quot;Open Sans, Medium&quot;; white-space: pre; opacity: .867; fill: #d40000; stroke: #d40000; stroke-width: .300001px; stroke-linecap: round; paint-order: markers fill stroke; stroke-opacity: 1; fill-opacity: 1; font-family: Open Sans; font-size: 21.3333px; font-weight: 500" id="path1-3"></path>
    <path d="m 130.22019,131.59491 c 1.56955,0 2.7734,0.55582 3.61159,1.66744 0.84639,1.11163 1.3261,6.23103 1.26958,8.68458 l -0.20918,9.08125 h -2.4529 l 0.20918,-11.94716 c 0.0268,-1.52802 -0.23832,-2.67485 -0.71491,-3.4391 -0.47662,-0.77582 -1.20798,-1.16373 -2.19407,-1.16373 -1.40519,0 -2.39128,0.58476 -2.95828,1.75428 -0.5588,1.16953 -0.76528,6.20317 -0.83819,8.42405 l -0.20919,6.37166 h -2.47757 l 0.20918,-19.08589 h 1.95986 l 0.35747,2.69222 h 0.1356 c 0.2876,-0.6716 0.65328,-1.23321 1.09703,-1.6848 0.44374,-0.4516 0.93679,-0.7874 1.47914,-1.00742 0.55058,-0.23158 1.1258,-0.34738 1.72566,-0.34738 z" style="-inkscape-font-specification: &quot;Open Sans, Medium&quot;; white-space: pre; opacity: .867; fill: #d40000; stroke: #d40000; stroke-width: .300001px; stroke-linecap: round; paint-order: markers fill stroke; stroke-opacity: 1; fill-opacity: 1; font-family: Open Sans; font-size: 21.3333px; font-weight: 500" id="path1-88" sodipodi:nodetypes="scsccscscsccccccscs"></path>
    <path d="m 142.28535,111.54373 c 1.18332,0 2.19818,0.35896 3.04457,1.07689 0.8464,0.70634 1.49558,1.70796 1.94754,3.00486 0.45197,1.29689 -0.39417,22.575 -1.28192,23.81313 -1.25882,1.75563 -2.69945,0.9553 -3.21715,1.30268 -3.03013,-0.0304 -4.28169,-2.29273 -4.63465,0.46897 0.0246,2.04956 0.99016,4.61441 1.71335,5.71445 0.72314,1.08847 1.73798,1.6327 3.04457,1.6327 0.86284,0 1.63117,-0.11579 2.30499,-0.34738 0.67384,-0.23159 1.37233,-0.57318 2.09547,-1.02478 v 2.93538 c -0.68205,0.44002 -1.36822,0.75846 -2.05849,0.95531 -0.68205,0.20843 -1.49969,0.31264 -2.45291,0.31264 -1.31479,0 -2.46935,-0.37054 -3.46366,-1.11162 -0.9861,-0.74109 -1.75444,-1.83534 -2.305,-3.28277 -0.55057,-1.45901 -0.82586,-3.25382 -0.82586,-5.38444 0,-2.10745 0.25064,-23.91734 0.7519,-25.41109 0.50127,-1.50533 1.20797,-2.65748 2.12011,-3.45646 0.91213,-0.79898 1.98451,-1.19847 3.21714,-1.19847 z m -0.0123,2.70959 c -1.00253,0 -1.80783,0.46317 -2.41593,1.38953 -0.53608,0.80643 -2.47979,16.33748 -1.3369,21.37019 0.15354,0.67615 1.72968,2.25235 0.85618,1.2792 l 4.83186,0.93794 c 2.31669,-0.37119 1.13366,-21.62352 0.89982,-22.4236 -0.23302,-0.79729 -0.57933,-1.42427 -1.04772,-1.87587 -0.46018,-0.4516 -1.05596,-0.67739 -1.78731,-0.67739 z" style="-inkscape-font-specification: &quot;Open Sans, Medium&quot;; white-space: pre; opacity: .867; fill: #d40000; stroke: #d40000; stroke-width: .300001px; stroke-linecap: round; paint-order: markers fill stroke; stroke-opacity: 1; fill-opacity: 1; font-family: Open Sans; font-size: 21.3333px; font-weight: 500" id="path1-2" sodipodi:nodetypes="scsscccsscccsccscssscsccscs"></path>
    <path d="m 165.09542,134.65009 v 15.80592 h -1.98452 l -0.34512,-2.62274 h -0.1356 c -0.27939,0.66002 -0.64096,1.21005 -1.0847,1.65006 -0.44374,0.44002 -0.9409,0.77004 -1.49148,0.99005 -0.55056,0.22001 -1.13401,0.33001 -1.75031,0.33001 -1.04363,0 -1.93112,-0.24317 -2.66247,-0.7295 -0.72314,-0.48634 -1.2737,-1.239 -1.65171,-2.25799 -0.36979,-1.03057 -0.55468,-2.35642 -0.55468,-3.97754 v -5.85339 h 2.48989 v 5.36706 c 0,1.54006 0.2342,2.69221 0.7026,3.45646 0.47661,0.76424 1.19975,1.14636 2.16941,1.14636 0.94501,0 1.69281,-0.26054 2.24337,-0.78161 0.5588,-0.53266 0.95734,-1.30269 1.19565,-2.3101 0.24652,-1.01899 0.36978,-5.59866 0.36978,-7.06925 v -3.1438 z" style="-inkscape-font-specification: &quot;Open Sans, Medium&quot;; white-space: pre; opacity: .867; fill: #d40000; stroke: #d40000; stroke-width: .300001px; stroke-linecap: round; paint-order: markers fill stroke; stroke-opacity: 1; fill-opacity: 1; font-family: Open Sans; font-size: 21.3333px; font-weight: 500" id="path1-74" sodipodi:nodetypes="cccccsssccsccscsccscc"></path>
    <path d="m 134.99428,124.1064 c 0,0.6628 -0.0603,1.25494 -0.18109,1.77641 -0.11739,0.5166 -0.2901,0.95522 -0.51817,1.31587 -0.22468,0.35577 -0.49634,0.62869 -0.81495,0.81875 -0.3186,0.1852 -0.67913,0.2778 -1.08156,0.2778 -0.37562,0 -0.72106,-0.0926 -1.0363,-0.2778 -0.31189,-0.19006 -0.58188,-0.46298 -0.80993,-0.81875 -0.22804,-0.36065 -0.40412,-0.79927 -0.5282,-1.31587 -0.12409,-0.52147 -0.18614,-1.11361 -0.18614,-1.77641 0,-0.88212 0.10401,-1.63265 0.3119,-2.25159 0.20793,-0.62382 0.50473,-1.09655 0.89041,-1.41821 0.38903,-0.32653 0.85185,-0.48979 1.38845,-0.48979 0.50976,0 0.95748,0.16326 1.34314,0.48979 0.38568,0.32653 0.68584,0.79927 0.90049,1.41821 0.21463,0.61894 0.32195,1.36947 0.32195,2.25159 z m -4.73881,0.0219 c 0,0.61895 0.40078,2.02985 0.5081,2.47821 0.13101,0.48216 1.29668,1.41067 1.07654,0.80414 0.22805,0.23881 0.64224,0.11697 1.00109,0.11697 0.35214,0 0.73278,-0.38257 0.96083,-0.62138 0.22806,-0.2388 0.38065,-0.86506 0.48798,-1.30855 0.10732,-0.44837 0.25151,-1.06975 0.25151,-1.68869 0,-0.61407 -0.0989,-1.31586 -0.20625,-1.75449 -0.10733,-0.43862 -0.50137,-1.06 -0.72943,-1.29393 -0.2247,-0.23393 -0.83507,0.30704 -1.19727,0.30704 -0.52989,0 -1.37167,-0.42157 -1.61985,0.095 -0.24481,0.51172 -0.53325,1.9348 -0.53325,2.86565 z" style="-inkscape-font-specification: &quot;Open Sans, Medium&quot;; white-space: pre; opacity: .867; fill: #d40000; stroke: #d40000; stroke-width: .300001px; stroke-linecap: round; paint-order: markers fill stroke; stroke-opacity: 1; fill-opacity: 1; font-family: Open Sans; font-size: 21.3333px; font-weight: 500" id="path1-7-1-5-8-6-7-9" sodipodi:nodetypes="scccscccsccsssssccsscsscscs"></path>
    <path d="m 115.54127,115.60972 c 1.65172,0 2.97062,0.82793 3.95672,2.48379 0.99431,1.64428 1.04772,19.73717 1.04772,23.01415 0,2.17693 -0.23009,4.00648 -0.69027,5.48865 -0.45195,1.47058 -1.09292,2.588 -1.92289,3.35224 -0.82174,0.75266 -1.78729,1.129 -2.89665,1.129 -0.69849,0 -1.31068,-0.12738 -1.83661,-0.38212 -0.52591,-0.26633 -0.97788,-0.61371 -1.35588,-1.04215 -0.36979,-0.44002 -0.68205,-0.90899 -0.9368,-1.4069 h -0.16023 c 0.0329,0.45159 0.0658,0.97846 0.0986,1.58059 0.0411,0.59055 0.0616,1.1232 0.0616,1.59796 v 7.81612 h -2.48989 l 0.44375,-43.28394 h 2.03382 l 0.33281,2.74432 h 0.12326 c 0.25474,-0.56739 0.56701,-1.08268 0.93679,-1.54585 0.378,-0.47476 0.83408,-0.85109 1.36822,-1.129 0.53413,-0.2779 1.16277,-0.41686 1.8859,-0.41686 z m -0.567,2.88328 c -0.87105,0 -1.56954,0.24317 -2.09546,0.72951 -0.5177,0.47475 -0.89981,1.18689 -1.14633,2.1364 -0.23831,0.94951 -0.80943,17.77445 -0.82587,19.2103 v 0.55581 c 0,1.52849 0.11502,2.8196 0.34514,3.87332 0.23009,1.04215 0.6122,1.84113 1.14634,2.39695 0.53414,0.54423 1.25317,0.81635 2.15708,0.81635 0.77245,0 1.41341,-0.29528 1.9229,-0.88583 0.5177,-0.59055 0.89981,-1.42427 1.14633,-2.50116 0.25475,-1.07688 0.38211,-2.32746 0.38211,-3.75173 0,-2.16536 0.16024,-19.494 -0.40675,-20.72142 -0.56701,-1.239 -1.44217,-1.8585 -2.62549,-1.8585 z" style="-inkscape-font-specification: &quot;Open Sans, Medium&quot;; white-space: pre; opacity: .867; fill: #d40000; stroke: #d40000; stroke-width: .300001px; stroke-linecap: round; paint-order: markers fill stroke; stroke-opacity: 1; fill-opacity: 1; font-family: Open Sans; font-size: 21.3333px; font-weight: 500" id="path1-8" sodipodi:nodetypes="scsccscccccscccccccsssscccsccsccscs"></path>
    <text xml:space="preserve" id="text10" style="font-variant: normal; -inkscape-font-specification: &quot;Open Sans, Medium&quot;; font-variant-ligatures: normal; font-variant-numeric: normal; font-variant-east-asian: normal; white-space: pre; shape-inside: url(&quot;#rect10&quot;); opacity: .867; fill: #d40000; fill-opacity: 1; stroke: #d40000; stroke-width: .17922px; stroke-linecap: round; stroke-dasharray: none; stroke-opacity: 1; paint-order: markers fill stroke; font-family: Open Sans; font-size: 12.7445px; font-style: normal; font-variant-caps: normal; font-weight: 500; font-stretch: normal; display: inline" transform="matrix(1.3875979,0,0,2.0193285,-164.44186,-477.73417)"><tspan x="210.2168" y="330.14466" id="tspan5">GROUPEMENT 
</tspan><tspan x="210.2168" y="346.07529" id="tspan6">DE LOCATAIRES
</tspan><tspan x="210.2168" y="362.00592" id="tspan7">DU 
</tspan><tspan x="210.2168" y="377.93656" id="tspan8">50 RUE RAMPONEAU</tspan></text>
  </g>
</svg>
