<?xml version="1.0" encoding="UTF-8" standalone="no"?>
<!-- Created with Inkscape (http://www.inkscape.org/) -->

<svg width="180" height="180" viewBox="0 0 180 180" version="1.1" id="svg1" inkscape:version="1.3.2 (091e20e, 2023-11-25, custom)" sodipodi:docname="logo.svg" xmlns:inkscape="http://www.inkscape.org/namespaces/inkscape" xmlns:sodipodi="http://sodipodi.sourceforge.net/DTD/sodipodi-0.dtd" xmlns="http://www.w3.org/2000/svg" xmlns:svg="http://www.w3.org/2000/svg">
  <sodipodi:namedview id="namedview1" pagecolor="#ffffff" bordercolor="#000000" borderopacity="0.25" inkscape:showpageshadow="2" inkscape:pageopacity="0.0" inkscape:pagecheckerboard="0" inkscape:deskcolor="#d1d1d1" inkscape:document-units="px" inkscape:zoom="2.6444444" inkscape:cx="90" inkscape:cy="89.810924" inkscape:window-width="1920" inkscape:window-height="991" inkscape:window-x="4791" inkscape:window-y="951" inkscape:window-maximized="1" inkscape:current-layer="logo"></sodipodi:namedview>
  <defs id="defs1"></defs>
  <g inkscape:label="layer_logo" inkscape:groupmode="layer" id="layer1">
    <g id="logo" transform="matrix(1.6683826,0,0,2.395807,-41.464232,5.5986089)" style="stroke-width: .50018px">
      <path d="M 57.181985,50.425026 C 56.46505,47.741154 51.009559,38.542149 55.267602,42.296483 l -8.771685,0.263652 -0.3864,7.714627 -1.527095,0.176045 c 1.022658,-6.640975 0.933292,-12.66309 5.329872,-19.695197 0.628773,-1.04159 1.336473,-1.275503 2.148672,-0.440114 3.339272,6.232721 4.351881,13.35825 6.501984,20.047288 z m -3.455769,-9.217915 c -0.314608,-1.668504 -0.782793,-7.850598 -1.42923,-9.139047 -0.786905,-1.898496 -1.531192,-1.874669 -1.865482,-1.339046 -0.922915,1.421169 -1.558379,2.713082 -2.175405,4.389406 -0.973091,2.109608 -1.471064,4.658849 -1.887514,6.679008 z" id="text2-6" style="-inkscape-font-specification: &quot;Open Sans, Medium&quot;; opacity: .867; fill: #ff0100; stroke: #fd0000; stroke-width: .150054px; stroke-linecap: round; paint-order: markers fill stroke; font-family: Open Sans; font-size: 21.3333px; font-weight: 500" aria-label="A" sodipodi:nodetypes="ccccccccccccccc"></path>
      <path d="m 116.93339,39.463792 c -0.49062,-1.971078 -0.81945,-3.998652 -1.31007,-5.969729 -1.93842,0.147877 -4.94315,-0.415114 -5.81527,0.44363 l -0.45193,5.415742 -1.04504,0.129294 c 0.69984,-4.877235 0.63869,-9.299969 3.64742,-14.464457 0.43028,-0.764961 0.91459,-0.93675 1.47041,-0.323228 2.28517,4.577408 2.97814,9.810506 4.44952,14.723039 z m -2.14269,-7.382077 c -0.2153,-1.225376 -0.7579,-5.153305 -1.20028,-6.099561 -0.53851,-1.394286 -1.04785,-1.376786 -1.27662,-0.983416 -0.63158,1.043727 -1.06645,1.99253 -1.4887,3.223648 -0.66592,1.549328 -1.0067,3.421531 -1.29168,4.905167 1.75793,-0.344941 5.43509,0.589597 5.25728,-1.045838 z" id="text2-9-5" style="-inkscape-font-specification: &quot;Open Sans, Medium&quot;; opacity: .867; fill: #ff0100; stroke: #fd0000; stroke-width: .150054px; stroke-linecap: round; paint-order: markers fill stroke; font-family: Open Sans; font-size: 21.3333px; font-weight: 500" aria-label="A" sodipodi:nodetypes="ccccccccccccccc"></path>
      <path d="m 68.627103,25.291376 c 1.270831,0 2.229163,0.333333 2.874996,0.999999 0.652777,0.659721 0.945328,1.719139 0.979165,3.177078 L 72.9674,50.414741 h -2.072913 c -0.162045,-6.895291 0.738409,-15.409358 0.576364,-20.123372 -0.03101,-0.902243 -0.01256,-3.026241 -0.387562,-3.477629 -0.368055,-0.451389 -2.002895,-0.677083 -2.739005,-0.677083 -1.041665,0 -1.861428,0.757913 -2.326705,1.389856 -0.458333,0.624999 -0.76521,7.673555 -0.727251,8.888238 l 0.4375,13.99999 -1.42708,0.359375 0.263864,-14.310872 c 0.01114,-0.604063 0.454964,-8.722422 -0.949143,-9.118255 -0.166666,-0.402777 -1.009815,-0.616472 -1.336204,-0.817861 -0.326388,-0.201389 -0.833535,-0.0068 -1.239581,0.07357 -0.670788,0.132754 -1.509163,0.355123 -1.939718,0.667623 -0.423611,0.305555 -0.533764,0.539445 -0.728207,1.143611 -0.1875,0.604165 -0.348892,7.409517 -0.321002,8.284071 l 0.4375,13.718741 H 56.39451 c 0.06963,-6.440643 0.211434,-13.923227 0.330422,-20.363032 -0.0312,-3.024069 0.877256,-3.265846 1.148665,-3.472116 0.354166,-0.263888 0.923302,-0.63858 1.353857,-0.770525 0.430555,-0.138889 1.680912,-0.517692 2.160078,-0.517692 0.861109,0 1.586802,0.15625 2.177079,0.46875 0.590277,0.312499 1.024305,0.788193 1.302082,1.427081 h 0.135416 c 0.368055,-0.645833 0.874999,-1.121526 1.520831,-1.427081 0.652777,-0.3125 1.354164,-0.46875 2.104163,-0.46875 z" id="text1-42-8-5" style="-inkscape-font-specification: &quot;Open Sans, Medium&quot;; white-space: pre; opacity: .867; fill: #ff0100; stroke: #fd0000; stroke-width: .150054px; stroke-linecap: round; paint-order: markers fill stroke; font-family: Open Sans; font-size: 21.3333px; font-weight: 500" aria-label="Ramponeau" sodipodi:nodetypes="scsccscscsccscsaccscccccsscccss"></path>
      <path d="m 92.681682,27.544479 c 0.173434,0.928382 0.140165,1.721901 -0.109835,2.464955 -0.24305,0.73611 -0.551177,1.222345 -1.07292,1.874997 -0.437854,0.502143 -0.967208,0.887348 -1.588053,1.155616 -0.90184,0.18878 -1.698861,0.120876 -2.484848,0.01105 -0.645833,-0.270833 -1.20486,-0.659721 -1.677081,-1.166665 -0.472221,-0.513888 -0.836804,-1.138887 -1.093748,-1.874997 -0.256944,-0.743054 -0.267095,-1.529555 -0.07606,-2.398663 0.313902,-1.428062 0.08427,-0.409412 0.35857,-1.385105 0.430555,-0.888887 0.444915,-0.979241 1.25915,-1.570386 0.805555,-0.59786 0.05761,-0.212782 1.499997,-0.822916 1.700253,-0.719212 3.509731,-0.08044 4.58332,2.437496 0.38735,0.908471 0.158437,-0.02651 0.401505,1.274618 z m -6.266071,-0.06629 c 0,0.881943 0.111111,1.642359 0.333333,2.281247 0.229166,0.631943 0.576388,1.118054 1.041665,1.458331 0.501617,0.262957 1.240447,0.192009 1.624988,0 0.520749,-0.26002 1.053261,-0.643331 1.538854,-1.104778 0.730453,-0.69413 0.743784,-1.038562 0.867396,-1.5723 0.09255,-0.399627 0.07764,-0.06564 0.19792,-0.999996 0.0319,-0.69129 -0.717645,-2.714006 -1.88542,-3.312498 -0.409855,-0.210054 -1.58946,-0.121532 -2.279366,0.219671 -1.504212,0.743931 -1.472102,0.70952 -1.43937,3.030323 z" style="-inkscape-font-specification: &quot;Open Sans, Medium&quot;; white-space: pre; opacity: .867; fill: #ff0100; stroke: #fd0000; stroke-width: .150054px; stroke-linecap: round; paint-order: markers fill stroke; font-family: Open Sans; font-size: 21.3333px; font-weight: 500" id="path1-82" sodipodi:nodetypes="sccccccsccssssccscsscssc"></path>
      <path d="m 55.030925,24.374499 c 0,0.706264 -0.07378,1.337229 -0.221341,1.892892 -0.143459,0.550471 -0.354554,1.017852 -0.633284,1.402143 -0.274623,0.379098 -0.606634,0.669912 -0.99603,0.872444 -0.389398,0.197339 -0.83003,0.296008 -1.321895,0.296008 -0.45908,0 -0.881268,-0.09867 -1.266564,-0.296008 -0.381198,-0.202532 -0.71116,-0.493346 -0.989886,-0.872444 -0.278725,-0.384291 -0.493918,-0.851672 -0.645577,-1.402143 -0.151659,-0.555663 -0.227489,-1.186628 -0.227489,-1.892892 0,-0.939954 0.127066,-1.739695 0.381198,-2.399221 0.254132,-0.664719 0.616885,-1.168452 1.088259,-1.511198 0.475473,-0.347939 1.041123,-0.521909 1.696949,-0.521909 0.623033,0 1.170232,0.17397 1.641607,0.521909 0.471374,0.347939 0.838228,0.851672 1.100555,1.511198 0.262334,0.659526 0.393498,1.459267 0.393498,2.399221 z m -5.791754,0.02337 c 0,0.659526 0.48982,2.162936 0.620985,2.640704 0.16013,0.513771 1.584805,1.503164 1.31575,0.856864 0.278724,0.254463 0.784939,0.124635 1.223521,0.124635 0.430386,0 0.895611,-0.407661 1.174335,-0.662124 0.27873,-0.254462 0.46523,-0.921779 0.596393,-1.394353 0.131164,-0.477767 0.307417,-1.13989 0.307417,-1.799417 0,-0.654333 -0.120917,-1.402142 -0.252081,-1.869523 -0.131164,-0.467381 -0.612785,-1.129504 -0.891515,-1.378774 -0.274624,-0.24927 -1.020624,0.327168 -1.463307,0.327168 -0.647627,0 -1.676453,-0.449206 -1.979772,0.101265 -0.299219,0.545277 -0.651726,2.061669 -0.651726,3.053555 z" style="-inkscape-font-specification: &quot;Open Sans, Medium&quot;; white-space: pre; opacity: .867; fill: #ff0100; stroke: #fd0000; stroke-width: .150054px; stroke-linecap: round; paint-order: markers fill stroke; font-family: Open Sans; font-size: 21.3333px; font-weight: 500" id="path1-7-2" sodipodi:nodetypes="scccscccsccsssssccsscsscscs"></path>
      <path d="m 63.954668,18.968813 c 0,0.706264 -0.07378,1.337229 -0.221341,1.892892 -0.143459,0.550471 -0.354554,1.017852 -0.633284,1.402143 -0.274623,0.379098 -0.606634,0.669912 -0.99603,0.872444 -0.389398,0.197339 -0.83003,0.296008 -1.321895,0.296008 -0.45908,0 -0.881268,-0.09867 -1.266564,-0.296008 -0.381198,-0.202532 -0.71116,-0.493346 -0.989886,-0.872444 -0.278725,-0.384291 -0.493918,-0.851672 -0.645577,-1.402143 -0.151659,-0.555663 -0.227489,-1.186628 -0.227489,-1.892892 0,-0.939954 0.127066,-1.739695 0.381198,-2.399221 0.254132,-0.664719 0.616885,-1.168452 1.088259,-1.511198 0.475473,-0.347939 1.041123,-0.521909 1.696949,-0.521909 0.623033,0 1.170232,0.17397 1.641607,0.521909 0.471374,0.347939 0.838228,0.851672 1.100555,1.511198 0.262334,0.659526 0.393498,1.459267 0.393498,2.399221 z m -5.791754,0.02337 c 0,0.659526 0.48982,2.162936 0.620985,2.640704 0.16013,0.513771 1.584805,1.503164 1.31575,0.856864 0.278724,0.254463 0.784939,0.124635 1.223521,0.124635 0.430386,0 0.895611,-0.407661 1.174335,-0.662124 0.27873,-0.254462 0.46523,-0.921779 0.596393,-1.394353 0.131164,-0.477767 0.307417,-1.13989 0.307417,-1.799417 0,-0.654333 -0.120917,-1.402142 -0.252081,-1.869523 -0.131164,-0.467381 -0.612785,-1.129504 -0.891515,-1.378774 -0.274624,-0.24927 -1.020624,0.327168 -1.463307,0.327168 -0.647627,0 -1.676453,-0.449206 -1.979772,0.101265 -0.299219,0.545277 -0.651726,2.061669 -0.651726,3.053555 z" style="-inkscape-font-specification: &quot;Open Sans, Medium&quot;; white-space: pre; opacity: .867; fill: #ff0100; stroke: #fd0000; stroke-width: .150054px; stroke-linecap: round; paint-order: markers fill stroke; font-family: Open Sans; font-size: 21.3333px; font-weight: 500" id="path1-7-1-59" sodipodi:nodetypes="scccscccsccsssssccsscsscscs"></path>
      <path d="m 71.954668,18.968813 c 0,0.706264 -0.07378,1.337229 -0.221341,1.892892 -0.143459,0.550471 -0.354554,1.017852 -0.633284,1.402143 -0.274623,0.379098 -0.606634,0.669912 -0.99603,0.872444 -0.389398,0.197339 -0.83003,0.296008 -1.321895,0.296008 -0.45908,0 -0.881268,-0.09867 -1.266564,-0.296008 -0.381198,-0.202532 -0.71116,-0.493346 -0.989886,-0.872444 -0.278725,-0.384291 -0.493918,-0.851672 -0.645577,-1.402143 -0.151659,-0.555663 -0.227489,-1.186628 -0.227489,-1.892892 0,-0.939954 0.127066,-1.739695 0.381198,-2.399221 0.254132,-0.664719 0.616885,-1.168452 1.088259,-1.511198 0.475473,-0.347939 1.041123,-0.521909 1.696949,-0.521909 0.623033,0 1.170232,0.17397 1.641607,0.521909 0.471374,0.347939 0.838228,0.851672 1.100555,1.511198 0.262334,0.659526 0.393498,1.459267 0.393498,2.399221 z m -5.791754,0.02337 c 0,0.659526 0.48982,2.162936 0.620985,2.640704 0.16013,0.513771 1.584805,1.503164 1.31575,0.856864 0.278724,0.254463 0.784939,0.124635 1.223521,0.124635 0.430386,0 0.895611,-0.407661 1.174335,-0.662124 0.27873,-0.254462 0.46523,-0.921779 0.596393,-1.394353 0.131164,-0.477767 0.307417,-1.13989 0.307417,-1.799417 0,-0.654333 -0.120917,-1.402142 -0.252081,-1.869523 -0.131164,-0.467381 -0.612785,-1.129504 -0.891515,-1.378774 -0.274624,-0.24927 -1.020624,0.327168 -1.463307,0.327168 -0.647627,0 -1.676453,-0.449206 -1.979772,0.101265 -0.299219,0.545277 -0.651726,2.061669 -0.651726,3.053555 z" style="-inkscape-font-specification: &quot;Open Sans, Medium&quot;; white-space: pre; opacity: .867; fill: #ff0100; stroke: #fd0000; stroke-width: .150054px; stroke-linecap: round; paint-order: markers fill stroke; font-family: Open Sans; font-size: 21.3333px; font-weight: 500" id="path1-7-1-5-7" sodipodi:nodetypes="scccscccsccsssssccsscsscscs"></path>
      <path d="m 79.452066,23.582328 c 0,0.706264 -0.07378,1.337229 -0.221341,1.892892 -0.143459,0.550471 -0.354554,1.017852 -0.633284,1.402143 -0.274623,0.379098 -0.606634,0.669912 -0.99603,0.872444 -0.389398,0.197339 -0.83003,0.296008 -1.321895,0.296008 -0.45908,0 -0.881268,-0.09867 -1.266564,-0.296008 -0.381198,-0.202532 -0.71116,-0.493346 -0.989886,-0.872444 C 73.744341,26.493072 73.529148,26.025691 73.377489,25.47522 73.22583,24.919557 73.15,24.288592 73.15,23.582328 c 0,-0.939954 0.127066,-1.739695 0.381198,-2.399221 0.254132,-0.664719 0.616885,-1.168452 1.088259,-1.511198 C 75.09493,19.32397 75.66058,19.15 76.316406,19.15 c 0.623033,0 1.170232,0.17397 1.641607,0.521909 0.471374,0.347939 0.838228,0.851672 1.100555,1.511198 0.262334,0.659526 0.393498,1.459267 0.393498,2.399221 z m -5.791754,0.02337 c 0,0.659526 0.48982,2.162936 0.620985,2.640704 0.16013,0.513771 1.584805,1.503164 1.31575,0.856864 0.278724,0.254463 0.784939,0.124635 1.223521,0.124635 0.430386,0 0.895611,-0.407661 1.174335,-0.662124 0.27873,-0.254462 0.46523,-0.921779 0.596393,-1.394353 0.131164,-0.477767 0.307417,-1.13989 0.307417,-1.799417 0,-0.654333 -0.120917,-1.402142 -0.252081,-1.869523 -0.131164,-0.467381 -0.612785,-1.129504 -0.891515,-1.378774 -0.274624,-0.24927 -1.020624,0.327168 -1.463307,0.327168 -0.647627,0 -1.676453,-0.449206 -1.979772,0.101265 -0.299219,0.545277 -0.651726,2.061669 -0.651726,3.053555 z" style="-inkscape-font-specification: &quot;Open Sans, Medium&quot;; white-space: pre; opacity: .867; fill: #ff0100; stroke: #fd0000; stroke-width: .150054px; stroke-linecap: round; paint-order: markers fill stroke; font-family: Open Sans; font-size: 21.3333px; font-weight: 500" id="path1-7-1-5-8-9" sodipodi:nodetypes="scccscccsccsssssccsscsscscs"></path>
      <path d="m 113.94776,20.058809 c 0,0.397498 -0.051,0.752617 -0.15304,1.065354 -0.0992,0.309815 -0.24516,0.572866 -0.43789,0.789152 -0.18988,0.213363 -0.41945,0.377039 -0.6887,0.491027 -0.26925,0.111066 -0.57392,0.166599 -0.91401,0.166599 -0.31743,0 -0.60935,-0.05553 -0.87576,-0.166599 -0.26357,-0.113988 -0.49173,-0.277664 -0.68445,-0.491027 -0.19272,-0.216286 -0.34152,-0.479337 -0.44638,-0.789152 -0.10486,-0.312737 -0.1573,-0.667856 -0.1573,-1.065354 0,-0.529024 0.0879,-0.979133 0.26358,-1.350326 0.17572,-0.374116 0.42654,-0.657626 0.75247,-0.85053 0.32876,-0.195826 0.71988,-0.29374 1.17335,-0.29374 0.43079,0 0.80915,0.09791 1.13507,0.29374 0.32593,0.195827 0.57959,0.479337 0.76098,0.85053 0.18138,0.371193 0.27208,0.821302 0.27208,1.350326 z m -4.00468,0.01315 c 0,0.371193 0.33869,1.21734 0.42938,1.486236 0.11072,0.28916 1.0958,0.846009 0.90977,0.482259 0.19272,0.143217 0.54274,0.07015 0.846,0.07015 0.29759,0 0.61926,-0.229439 0.81198,-0.372656 0.19273,-0.143215 0.32168,-0.518794 0.41238,-0.784767 0.0907,-0.268896 0.21255,-0.641551 0.21255,-1.012745 0,-0.36827 -0.0836,-0.789151 -0.1743,-1.052202 -0.0907,-0.26305 -0.4237,-0.635705 -0.61643,-0.775999 -0.18989,-0.140294 -0.7057,0.184136 -1.01179,0.184136 -0.4478,0 -1.15917,-0.252821 -1.3689,0.05699 -0.20689,0.306892 -0.45064,1.160345 -0.45064,1.718597 z" style="-inkscape-font-specification: &quot;Open Sans, Medium&quot;; white-space: pre; opacity: .867; fill: #ff0100; stroke: #fd0000; stroke-width: .150054px; stroke-linecap: round; paint-order: markers fill stroke; font-family: Open Sans; font-size: 21.3333px; font-weight: 500" id="path1-7-1-5-8-6-5" sodipodi:nodetypes="scccscccsccsssssccsscsscscs"></path>
      <path d="m 115.68773,38.268518 c 0,0.397498 -0.051,0.752617 -0.15304,1.065354 -0.0992,0.309815 -0.24516,0.572866 -0.43789,0.789152 -0.18988,0.213363 -0.41945,0.377039 -0.6887,0.491027 -0.26925,0.111066 -0.57392,0.166599 -0.91401,0.166599 -0.31743,0 -0.60935,-0.05553 -0.87576,-0.166599 -0.26357,-0.113988 -0.49173,-0.277664 -0.68445,-0.491027 -0.19272,-0.216286 -0.34152,-0.479337 -0.44638,-0.789152 -0.10486,-0.312737 -0.1573,-0.667856 -0.1573,-1.065354 0,-0.529024 0.0879,-0.979133 0.26358,-1.350326 0.17572,-0.374116 0.42654,-0.657626 0.75247,-0.85053 0.32876,-0.195826 0.71988,-0.29374 1.17335,-0.29374 0.43079,0 0.80915,0.09791 1.13507,0.29374 0.32593,0.195827 0.57959,0.479337 0.76098,0.85053 0.18138,0.371193 0.27208,0.821302 0.27208,1.350326 z m -4.00468,0.01315 c 0,0.371193 0.33869,1.21734 0.42938,1.486236 0.11072,0.28916 1.0958,0.846009 0.90977,0.482259 0.19272,0.143217 0.54274,0.07015 0.846,0.07015 0.29759,0 0.61926,-0.229439 0.81198,-0.372656 0.19273,-0.143215 0.32168,-0.518794 0.41238,-0.784767 0.0907,-0.268896 0.21255,-0.641551 0.21255,-1.012745 0,-0.36827 -0.0836,-0.789151 -0.1743,-1.052202 -0.0907,-0.26305 -0.4237,-0.635705 -0.61643,-0.775999 -0.18989,-0.140294 -0.7057,0.184136 -1.01179,0.184136 -0.4478,0 -1.15917,-0.252821 -1.3689,0.05699 -0.20689,0.306892 -0.45064,1.160345 -0.45064,1.718597 z" style="-inkscape-font-specification: &quot;Open Sans, Medium&quot;; white-space: pre; opacity: .867; fill: #ff0100; stroke: #fd0000; stroke-width: .150054px; stroke-linecap: round; paint-order: markers fill stroke; font-family: Open Sans; font-size: 21.3333px; font-weight: 500" id="path1-7-1-5-8-6-0-9" sodipodi:nodetypes="scccscccsccsssssccsscsscscs"></path>
      <path d="m 123.68773,36.268518 c 0,0.397498 -0.051,0.752617 -0.15304,1.065354 -0.0992,0.309815 -0.24516,0.572866 -0.43789,0.789152 -0.18988,0.213363 -0.41945,0.377039 -0.6887,0.491027 -0.26925,0.111066 -0.57392,0.166599 -0.91401,0.166599 -0.31743,0 -0.60935,-0.05553 -0.87576,-0.166599 -0.26357,-0.113988 -0.49173,-0.277664 -0.68445,-0.491027 -0.19272,-0.216286 -0.34152,-0.479337 -0.44638,-0.789152 -0.10486,-0.312737 -0.1573,-0.667856 -0.1573,-1.065354 0,-0.529024 0.0879,-0.979133 0.26358,-1.350326 0.17572,-0.374116 0.42654,-0.657626 0.75247,-0.85053 0.32876,-0.195826 0.71988,-0.29374 1.17335,-0.29374 0.43079,0 0.80915,0.09791 1.13507,0.29374 0.32593,0.195827 0.57959,0.479337 0.76098,0.85053 0.18138,0.371193 0.27208,0.821302 0.27208,1.350326 z m -4.00468,0.01315 c 0,0.371193 0.33869,1.21734 0.42938,1.486236 0.11072,0.28916 1.0958,0.846009 0.90977,0.482259 0.19272,0.143217 0.54274,0.07015 0.846,0.07015 0.29759,0 0.61926,-0.229439 0.81198,-0.372656 0.19273,-0.143215 0.32168,-0.518794 0.41238,-0.784767 0.0907,-0.268896 0.21255,-0.641551 0.21255,-1.012745 0,-0.36827 -0.0836,-0.789151 -0.1743,-1.052202 -0.0907,-0.26305 -0.4237,-0.635705 -0.61643,-0.775999 -0.18989,-0.140294 -0.7057,0.184136 -1.01179,0.184136 -0.4478,0 -1.15917,-0.252821 -1.3689,0.05699 -0.20689,0.306892 -0.45064,1.160345 -0.45064,1.718598 z" style="-inkscape-font-specification: &quot;Open Sans, Medium&quot;; white-space: pre; opacity: .867; fill: #ff0100; stroke: #fd0000; stroke-width: .150054px; stroke-linecap: round; paint-order: markers fill stroke; font-family: Open Sans; font-size: 21.3333px; font-weight: 500" id="path1-7-1-5-8-6-0-2-6" sodipodi:nodetypes="scccscccsccsssssccsscsscscs"></path>
      <path d="m 84.725784,23.530189 c 0,0.397498 -0.051,0.752617 -0.15304,1.065354 -0.0992,0.309815 -0.24516,0.572866 -0.43789,0.789152 -0.18988,0.213363 -0.41945,0.377039 -0.6887,0.491027 -0.26925,0.111066 -0.57392,0.166599 -0.91401,0.166599 -0.31743,0 -0.60935,-0.05553 -0.87576,-0.166599 -0.26357,-0.113988 -0.49173,-0.277664 -0.68445,-0.491027 -0.19272,-0.216286 -0.34152,-0.479337 -0.44638,-0.789152 -0.10486,-0.312737 -0.1573,-0.667856 -0.1573,-1.065354 0,-0.529024 0.0879,-0.979133 0.26358,-1.350326 0.17572,-0.374116 0.42654,-0.657626 0.75247,-0.85053 0.32876,-0.195826 0.71988,-0.29374 1.17335,-0.29374 0.43079,0 0.80915,0.09791 1.13507,0.29374 0.32593,0.195827 0.57959,0.479337 0.76098,0.85053 0.18138,0.371193 0.27208,0.821302 0.27208,1.350326 z m -4.00468,0.01315 c 0,0.371193 0.33869,1.21734 0.42938,1.486236 0.11072,0.28916 1.0958,0.846009 0.90977,0.482259 0.19272,0.143217 0.54274,0.07015 0.846,0.07015 0.29759,0 0.61926,-0.229439 0.81198,-0.372656 0.19273,-0.143215 0.32168,-0.518794 0.41238,-0.784767 0.0907,-0.268896 0.21255,-0.641551 0.21255,-1.012745 0,-0.36827 -0.0836,-0.789151 -0.1743,-1.052202 -0.0907,-0.26305 -0.4237,-0.635705 -0.61643,-0.775999 -0.18989,-0.140294 -0.7057,0.184136 -1.01179,0.184136 -0.4478,0 -1.15917,-0.252821 -1.3689,0.05699 -0.20689,0.306892 -0.45064,1.160345 -0.45064,1.718598 z" style="-inkscape-font-specification: &quot;Open Sans, Medium&quot;; white-space: pre; opacity: .867; fill: #ff0100; stroke: #fd0000; stroke-width: .150054px; stroke-linecap: round; paint-order: markers fill stroke; font-family: Open Sans; font-size: 21.3333px; font-weight: 500" id="path1-7-1-5-8-6-0-2-5-5" sodipodi:nodetypes="scccscccsccsssssccsscsscscs"></path>
      <path d="m 105.01184,22.785839 c 0,0.397498 -0.051,0.752617 -0.15304,1.065354 -0.0992,0.309815 -0.24516,0.572866 -0.43789,0.789152 -0.18988,0.213363 -0.41945,0.377039 -0.6887,0.491027 -0.26925,0.111066 -0.57392,0.166599 -0.91401,0.166599 -0.31743,0 -0.60935,-0.05553 -0.87576,-0.166599 -0.26357,-0.113988 -0.49173,-0.277664 -0.68445,-0.491027 -0.19272,-0.216286 -0.34152,-0.479337 -0.44638,-0.789152 -0.10486,-0.312737 -0.1573,-0.667856 -0.1573,-1.065354 0,-0.529024 0.0879,-0.979133 0.26358,-1.350326 0.17572,-0.374116 0.42654,-0.657626 0.75247,-0.85053 0.32876,-0.195826 0.71988,-0.29374 1.17335,-0.29374 0.43079,0 0.80915,0.09791 1.13507,0.29374 0.32593,0.195827 0.57959,0.479337 0.76098,0.85053 0.18138,0.371193 0.27208,0.821302 0.27208,1.350326 z m -4.00468,0.01315 c 0,0.371193 0.33869,1.21734 0.42938,1.486236 0.11072,0.28916 1.0958,0.846009 0.90977,0.482259 0.19272,0.143217 0.54274,0.07015 0.846,0.07015 0.29759,0 0.61926,-0.229439 0.81198,-0.372656 0.19273,-0.143215 0.32168,-0.518794 0.41238,-0.784767 0.0907,-0.268896 0.21255,-0.641551 0.21255,-1.012745 0,-0.36827 -0.0836,-0.789151 -0.1743,-1.052202 -0.0907,-0.26305 -0.4237,-0.635705 -0.61643,-0.775999 -0.18989,-0.140294 -0.7057,0.184136 -1.01179,0.184136 -0.4478,0 -1.15917,-0.252821 -1.3689,0.05699 -0.20689,0.306892 -0.45064,1.160345 -0.45064,1.718597 z" style="-inkscape-font-specification: &quot;Open Sans, Medium&quot;; white-space: pre; opacity: .867; fill: #ff0100; stroke: #fd0000; stroke-width: .150054px; stroke-linecap: round; paint-order: markers fill stroke; font-family: Open Sans; font-size: 21.3333px; font-weight: 500" id="path1-7-1-5-8-6-7-1" sodipodi:nodetypes="scccscccsccsssssccsscsscscs"></path>
      <path d="m 35.617042,36.25384 c 0,0.478198 -0.04636,0.905413 -0.139075,1.281642 -0.09014,0.372714 -0.222777,0.689169 -0.397911,0.949365 -0.172554,0.256681 -0.381166,0.453586 -0.625835,0.590716 -0.24467,0.133615 -0.521532,0.200422 -0.830586,0.200422 -0.288453,0 -0.553727,-0.06681 -0.79582,-0.200422 -0.239518,-0.13713 -0.446842,-0.334035 -0.621974,-0.590716 -0.175131,-0.260196 -0.310344,-0.576651 -0.405635,-0.949365 -0.09529,-0.376229 -0.142938,-0.803444 -0.142938,-1.281642 0,-0.636426 0.07984,-1.177916 0.239518,-1.624469 0.159678,-0.450069 0.387607,-0.791138 0.683785,-1.023205 0.298754,-0.235583 0.654168,-0.353375 1.066243,-0.353375 0.39147,0 0.735292,0.117792 1.031471,0.353375 0.296178,0.235583 0.526683,0.576652 0.691511,1.023205 0.164832,0.446553 0.247246,0.988043 0.247246,1.624469 z m -3.63913,0.01582 c 0,0.446553 0.307768,1.464484 0.390183,1.787972 0.100614,0.347865 0.99578,1.017765 0.826725,0.580167 0.17513,0.172293 0.4932,0.08439 0.768774,0.08439 0.270424,0 0.562739,-0.276019 0.73787,-0.448312 0.175134,-0.172291 0.292317,-0.624119 0.374731,-0.944091 0.08241,-0.323487 0.193159,-0.771798 0.193159,-1.218352 0,-0.443037 -0.07597,-0.949365 -0.15839,-1.26582 -0.08241,-0.316455 -0.385031,-0.764766 -0.560165,-0.933543 -0.172554,-0.168776 -0.641288,0.22152 -0.919439,0.22152 -0.406923,0 -1.053365,-0.304149 -1.24395,0.06856 -0.188008,0.369197 -0.409498,1.395918 -0.409498,2.067506 z" style="-inkscape-font-specification: &quot;Open Sans, Medium&quot;; white-space: pre; opacity: .867; fill: #ff0100; stroke: #fd0000; stroke-width: .150054px; stroke-linecap: round; paint-order: markers fill stroke; font-family: Open Sans; font-size: 21.3333px; font-weight: 500" id="path1-7-1-5-4-8" sodipodi:nodetypes="scccscccsccsssssccsscsscscs"></path>
      <path d="m 40.34246,35.185598 c 1.222205,-0.05897 1.484997,0.168094 2.341474,0.412318 0.840277,0.312499 1.465276,0.791665 1.874997,1.437498 0.409722,0.638888 0.614583,1.451387 0.614583,2.437496 0,0.777777 -0.142361,1.434026 -0.427083,1.968747 -0.284722,0.534721 -0.659721,0.972221 -1.124998,1.312498 -0.458333,0.340277 -0.951388,0.607638 -1.479165,0.802082 l 5.096014,6.858504 h -2.447913 l -3.708327,-6.229157 h -2.802079 v 6.229157 H 36.14455 l 0.335937,-13.549456 c 1.289602,-0.305518 2.178653,-1.598467 3.861973,-1.679687 z m 0.172881,0.739624 c -0.850593,0.02448 -1.593112,0.329962 -2.235378,0.896096 -1.320875,1.787545 -0.626718,3.675032 0,5.583019 l 3.443712,-0.307248 c 1.196634,-0.106764 1.244253,-0.299487 1.799808,-0.764764 0.555555,-0.472221 1.02376,-1.045805 0.833332,-2.08333 -0.168185,-0.916337 -0.679167,-1.698317 -1.05729,-2.036455 -0.413018,-0.39096 -2.050695,-1.308432 -2.784184,-1.287318 z" style="-inkscape-font-specification: &quot;Open Sans, Medium&quot;; white-space: pre; opacity: .867; fill: #ff0100; stroke: #fd0000; stroke-width: .150054px; stroke-linecap: round; paint-order: markers fill stroke; font-family: Open Sans; font-size: 21.3333px; font-weight: 500" id="path1-3-4"></path>
      <path d="m 92.997266,38.93892 c 1.3264,0 2.34375,0.333333 3.05209,0.999999 0.71527,0.666665 1.120661,3.736883 1.0729,5.208328 l -0.176777,5.446223 h -2.0729 l 0.176777,-7.164973 c 0.02261,-0.916386 -0.2014,-1.604164 -0.60416,-2.062497 -0.40278,-0.465277 -1.02084,-0.697916 -1.85417,-0.697916 -1.1875,0 -2.02083,0.350694 -2.49999,1.052082 -0.47223,0.701388 -0.646724,3.720171 -0.70834,5.052078 l -0.176777,3.821226 h -2.09375 l 0.176777,-11.446217 h 1.65624 l 0.30209,1.614581 h 0.11459 c 0.24305,-0.402777 0.55208,-0.739582 0.92708,-1.010415 0.375,-0.270833 0.79167,-0.472221 1.25,-0.604166 0.46528,-0.138889 0.95139,-0.208333 1.45832,-0.208333 z" style="-inkscape-font-specification: &quot;Open Sans, Medium&quot;; white-space: pre; opacity: .867; fill: #ff0100; stroke: #fd0000; stroke-width: .150054px; stroke-linecap: round; paint-order: markers fill stroke; font-family: Open Sans; font-size: 21.3333px; font-weight: 500" id="path1-88-5" sodipodi:nodetypes="scsccscscsccccccscs"></path>
      <path d="m 103.19331,26.913794 c 1,0 1.85764,0.215278 2.57291,0.645833 0.71528,0.42361 1.26389,1.024303 1.64583,1.80208 0.38195,0.777777 -0.33311,13.538711 -1.08333,14.281246 -1.0638,1.052893 -2.28125,0.572915 -2.71875,0.781248 -2.56071,-0.01825 -3.61838,-1.375 -3.91666,0.28125 0.0208,1.229165 0.83677,2.767358 1.44792,3.427079 0.61111,0.652777 1.46874,0.979165 2.57291,0.979165 0.72917,0 1.37847,-0.06944 1.94791,-0.208333 0.56945,-0.138889 1.15973,-0.343749 1.77084,-0.614582 v 1.760413 c -0.57639,0.263889 -1.15626,0.454861 -1.73959,0.572916 -0.57639,0.125 -1.26736,0.1875 -2.07291,0.1875 -1.11111,0 -2.0868,-0.222222 -2.92708,-0.666666 -0.83333,-0.444443 -1.48264,-1.100692 -1.94791,-1.968747 -0.46528,-0.874999 -0.69792,-1.951386 -0.69792,-3.229161 0,-1.263887 0.21181,-14.343747 0.63542,-15.239578 0.42361,-0.902777 1.02083,-1.593748 1.79166,-2.072914 0.77083,-0.479166 1.67708,-0.718749 2.71875,-0.718749 z m -0.0104,1.624998 c -0.84722,0 -1.52777,0.277777 -2.04166,0.833332 -0.45303,0.483634 -2.095624,9.797939 -1.12979,12.816166 0.12975,0.405498 1.46172,1.350782 0.72354,0.767163 l 4.08332,0.5625 c 1.95779,-0.222611 0.95803,-12.96809 0.76042,-13.447914 -0.19692,-0.478152 -0.48958,-0.854165 -0.88541,-1.124998 -0.38889,-0.270833 -0.89237,-0.406249 -1.51042,-0.406249 z" style="-inkscape-font-specification: &quot;Open Sans, Medium&quot;; white-space: pre; opacity: .867; fill: #ff0100; stroke: #fd0000; stroke-width: .150054px; stroke-linecap: round; paint-order: markers fill stroke; font-family: Open Sans; font-size: 21.3333px; font-weight: 500" id="path1-2-2" sodipodi:nodetypes="scsscccsscccsccscssscsccscs"></path>
      <path d="m 122.46968,40.771175 v 9.479149 h -1.67708 l -0.29166,-1.572914 h -0.11459 c -0.23611,0.395833 -0.54166,0.725693 -0.91666,0.989581 -0.375,0.263889 -0.79514,0.461805 -1.26042,0.59375 -0.46527,0.131944 -0.95833,0.197916 -1.47916,0.197916 -0.88195,0 -1.63195,-0.145833 -2.25,-0.437499 -0.61111,-0.291667 -1.07638,-0.743055 -1.39583,-1.354165 -0.3125,-0.618055 -0.46875,-1.413192 -0.46875,-2.385413 v -3.510405 h 2.10416 v 3.218739 c 0,0.923609 0.19792,1.61458 0.59375,2.072913 0.40278,0.458333 1.01389,0.687499 1.83333,0.687499 0.79861,0 1.43056,-0.15625 1.89583,-0.468749 0.47223,-0.319444 0.80903,-0.781249 1.01042,-1.385414 0.20833,-0.611111 0.3125,-3.357637 0.3125,-4.23958 v -1.885408 z" style="-inkscape-font-specification: &quot;Open Sans, Medium&quot;; white-space: pre; opacity: .867; fill: #ff0100; stroke: #fd0000; stroke-width: .150054px; stroke-linecap: round; paint-order: markers fill stroke; font-family: Open Sans; font-size: 21.3333px; font-weight: 500" id="path1-74-0" sodipodi:nodetypes="cccccsssccsccscsccscc"></path>
      <path d="m 97.031763,34.447897 c 0,0.397498 -0.051,0.752617 -0.15304,1.065354 -0.0992,0.309815 -0.24516,0.572866 -0.43789,0.789152 -0.18988,0.213363 -0.41945,0.377039 -0.6887,0.491027 -0.26925,0.111066 -0.57392,0.166599 -0.91401,0.166599 -0.31743,0 -0.60935,-0.05553 -0.87576,-0.166599 -0.26357,-0.113988 -0.49173,-0.277664 -0.68445,-0.491027 -0.19272,-0.216286 -0.34152,-0.479337 -0.44638,-0.789152 -0.10486,-0.312737 -0.1573,-0.667856 -0.1573,-1.065354 0,-0.529024 0.0879,-0.979133 0.26358,-1.350326 0.17572,-0.374116 0.42654,-0.657626 0.75247,-0.85053 0.32876,-0.195826 0.71988,-0.29374 1.17335,-0.29374 0.43079,0 0.80915,0.09791 1.13507,0.29374 0.32593,0.195827 0.57959,0.479337 0.76098,0.85053 0.18138,0.371193 0.27208,0.821302 0.27208,1.350326 z m -4.00468,0.01315 c 0,0.371193 0.33869,1.21734 0.42938,1.486236 0.11072,0.28916 1.0958,0.846009 0.90977,0.482259 0.19272,0.143217 0.54274,0.07015 0.846,0.07015 0.29759,0 0.61926,-0.229439 0.81198,-0.372656 0.19273,-0.143215 0.32168,-0.518794 0.41238,-0.784767 0.0907,-0.268896 0.21255,-0.641551 0.21255,-1.012745 0,-0.36827 -0.0836,-0.789151 -0.1743,-1.052202 -0.0907,-0.26305 -0.4237,-0.635705 -0.61643,-0.775999 -0.18989,-0.140294 -0.7057,0.184136 -1.01179,0.184136 -0.4478,0 -1.15917,-0.252821 -1.3689,0.05699 -0.20689,0.306892 -0.45064,1.160345 -0.45064,1.718597 z" style="-inkscape-font-specification: &quot;Open Sans, Medium&quot;; white-space: pre; opacity: .867; fill: #ff0100; stroke: #fd0000; stroke-width: .150054px; stroke-linecap: round; paint-order: markers fill stroke; font-family: Open Sans; font-size: 21.3333px; font-weight: 500" id="path1-7-1-5-8-6-7-9-9" sodipodi:nodetypes="scccscccsccsssssccsscsscscs"></path>
      <path d="m 80.59238,29.352259 c 1.39584,0 2.51042,0.496527 3.34375,1.489581 0.84028,0.98611 0.88541,11.836802 0.88541,13.802077 0,1.305553 -0.19444,2.402774 -0.58333,3.291661 -0.38194,0.881943 -0.92361,1.552081 -1.625,2.010414 -0.69444,0.451388 -1.51041,0.677082 -2.44791,0.677082 -0.59028,0 -1.10763,-0.07639 -1.55208,-0.229166 C 78.16878,50.234186 77.78683,50.025853 77.46739,49.768909 77.15489,49.50502 76.891,49.223771 76.67572,48.92516 h -0.13541 c 0.0278,0.270833 0.0556,0.586804 0.0833,0.947915 0.0347,0.354166 0.0521,0.67361 0.0521,0.958332 V 55.5189 h -2.10416 l 0.375,-25.958308 h 1.71875 l 0.28125,1.645831 h 0.10416 c 0.21528,-0.340277 0.47917,-0.649305 0.79167,-0.927082 0.31944,-0.284721 0.70486,-0.510415 1.15625,-0.677082 0.45139,-0.166667 0.98264,-0.25 1.59374,-0.25 z m -0.47916,1.729164 c -0.73611,0 -1.32639,0.145833 -1.77083,0.4375 -0.4375,0.284721 -0.76042,0.711804 -0.96875,1.281248 -0.20139,0.569443 -0.68403,10.65972 -0.69792,11.52083 v 0.333332 c 0,0.916665 0.0972,1.69097 0.29167,2.322913 0.19444,0.624999 0.51736,1.104165 0.96875,1.437498 0.45139,0.326389 1.05903,0.489583 1.82291,0.489583 0.65278,0 1.19444,-0.177083 1.625,-0.53125 0.4375,-0.354166 0.76042,-0.854165 0.96875,-1.499997 0.21528,-0.645833 0.32291,-1.395832 0.32291,-2.249997 0,-1.298609 0.13542,-11.690968 -0.34374,-12.427078 -0.47917,-0.743055 -1.21875,-1.114582 -2.21875,-1.114582 z" style="-inkscape-font-specification: &quot;Open Sans, Medium&quot;; white-space: pre; opacity: .867; fill: #ff0100; stroke: #fd0000; stroke-width: .150054px; stroke-linecap: round; paint-order: markers fill stroke; font-family: Open Sans; font-size: 21.3333px; font-weight: 500" id="path1-8-4" sodipodi:nodetypes="scsccscccccscccccccsssscccsccsccscs"></path>
    </g>
  </g>
</svg>
