<?xml version="1.0" encoding="UTF-8" standalone="no"?>
<!-- Created with Inkscape (http://www.inkscape.org/) -->

<svg width="48" height="48" viewBox="0 0 48 48" version="1.1" id="svg1" inkscape:version="1.3.2 (091e20e, 2023-11-25, custom)" sodipodi:docname="panneau_rue_ramponeau.svg" xmlns:inkscape="http://www.inkscape.org/namespaces/inkscape" xmlns:sodipodi="http://sodipodi.sourceforge.net/DTD/sodipodi-0.dtd" xmlns="http://www.w3.org/2000/svg" xmlns:svg="http://www.w3.org/2000/svg">
  <sodipodi:namedview id="namedview1" pagecolor="#ffffff" bordercolor="#000000" borderopacity="0.25" inkscape:showpageshadow="2" inkscape:pageopacity="0.0" inkscape:pagecheckerboard="0" inkscape:deskcolor="#d1d1d1" inkscape:document-units="px" inkscape:zoom="6.8333333" inkscape:cx="24.146341" inkscape:cy="33.658537" inkscape:window-width="2100" inkscape:window-height="1224" inkscape:window-x="7191" inkscape:window-y="996" inkscape:window-maximized="1" inkscape:current-layer="layer1-6"></sodipodi:namedview>
  <defs id="defs1"></defs>
  <g inkscape:label="Calque 1" inkscape:groupmode="layer" id="layer1">
    <g inkscape:label="Calque 1" inkscape:groupmode="layer" id="layer1-6" transform="matrix(0.7362184,0,0,0.78719465,-315.37259,-91.121384)" style="fill: red; stroke-width: 4.9647px">
      <path style="fill: #d40000; fill-opacity: 1; stroke-width: 4.9647px" d="m 454.24658,171.5951 c -16.91548,-0.0534 -19.90654,-0.11336 -19.90654,-0.39933 0,-0.76314 -1.1087,-2.49495 -1.91589,-2.99267 -0.47583,-0.2934 -1.37435,-0.5926 -1.99672,-0.66488 l -1.13156,-0.13142 0.17941,-4.79503 c 0.0987,-2.63727 0.17974,-8.79433 0.18014,-13.68236 l 7.3e-4,-8.88733 h 0.84025 c 1.81647,0 3.63944,-1.42289 3.94535,-3.07948 l 0.18033,-0.97648 21.9697,0.0298 c 12.08334,0.0163 24.20007,0.0969 26.92603,0.17894 4.67758,0.14078 4.96096,0.176 5.03903,0.62633 0.21614,1.24694 0.4206,1.62979 1.34213,2.51307 0.71792,0.68811 1.2863,0.99106 2.06052,1.09827 l 1.06915,0.14804 -0.007,13.53906 -0.007,13.53906 -1.08917,0.15081 c -1.58195,0.21905 -2.90496,1.32084 -3.33639,2.77853 l -0.35103,1.18601 -7.04263,-0.058 c -3.87344,-0.0319 -16.00058,-0.0863 -26.94918,-0.12086 z m -16.99537,-8.52947 c 0.0995,-0.45928 0.29529,-0.83505 0.43506,-0.83505 0.13978,0 0.51019,0.37577 0.82312,0.83505 0.54397,0.79835 1.39637,1.09811 1.7427,0.61285 0.0872,-0.1222 -0.0555,-0.61074 -0.3169,-1.08563 -0.40467,-0.73486 -0.42087,-0.93915 -0.10877,-1.37193 1.50389,-2.08525 0.13455,-4.00064 -2.86009,-4.00064 h -0.97318 v 3.3402 c 0,3.15533 0.0298,3.3402 0.53856,3.3402 0.39736,0 0.58598,-0.21894 0.71946,-0.83505 z m 0.11958,-3.45949 c 0,-0.66804 0.11809,-0.95435 0.3936,-0.95435 0.37128,0 1.25954,0.61198 1.25954,0.86778 0,0.42455 -0.65832,1.04091 -1.11179,1.04091 -0.44789,0 -0.54135,-0.16476 -0.54135,-0.95434 z m 5.3727,3.81736 c 0.12128,-0.3309 0.41688,-0.47716 0.96433,-0.47716 0.54745,0 0.84305,0.14626 0.96433,0.47716 0.19348,0.52789 1.17978,0.65175 1.39118,0.17471 0.0738,-0.16634 -0.17813,-1.52467 -0.55969,-3.01846 -0.38154,-1.4938 -0.69372,-2.74964 -0.69372,-2.79076 0,-0.0412 -0.24798,-0.18968 -0.55104,-0.33013 -0.92949,-0.43076 -1.52024,0.0712 -2.02112,1.7174 -0.82094,2.69814 -1.23119,4.45305 -1.07299,4.59004 0.37998,0.32906 1.41484,0.1044 1.57872,-0.3428 z m 0.68881,-2.50515 c 0,-0.19683 0.12399,-0.35787 0.27552,-0.35787 0.15154,0 0.27552,0.16104 0.27552,0.35787 0,0.19684 -0.12398,0.35788 -0.27552,0.35788 -0.15153,0 -0.27552,-0.16104 -0.27552,-0.35788 z m 5.06127,2.44551 c 0.0914,-0.29525 0.17828,-0.80523 0.19312,-1.13328 0.0231,-0.51008 0.10494,-0.4496 0.56524,0.41753 0.29603,0.55769 0.70958,1.01398 0.91897,1.01398 0.21158,0 0.60465,-0.55644 0.88478,-1.25257 l 0.50407,-1.25258 0.13801,1.31015 c 0.10934,1.03842 0.24544,1.32783 0.65602,1.39535 0.83192,0.13681 0.98866,-0.39188 0.99314,-3.34976 0.003,-2.34309 -0.0684,-2.82674 -0.44821,-3.01076 -0.86186,-0.41767 -1.40756,-0.0309 -2.025,1.43555 -0.33246,0.78956 -0.70065,1.34353 -0.8182,1.23106 -0.11754,-0.11249 -0.43507,-0.71955 -0.70563,-1.34905 -0.41673,-0.9696 -1.05025,-1.5992 -1.60917,-1.5992 -0.0749,0 -0.33104,0.16871 -0.56918,0.37492 -0.33745,0.29221 -0.43212,0.91061 -0.42919,2.80337 0.005,3.00393 0.1413,3.50211 0.96056,3.50211 0.41477,0 0.68035,-0.18031 0.79067,-0.53682 z m 7.49615,-0.31182 c 0.15279,-0.70524 0.36616,-0.91178 1.26293,-1.22248 1.70192,-0.58969 2.38827,-2.21016 1.43518,-3.38847 -0.50707,-0.62689 -1.95015,-1.22081 -2.96622,-1.22081 -1.28908,0 -1.54425,0.52657 -1.54015,3.17829 0.005,3.02309 0.13876,3.50211 0.98021,3.50211 0.52005,0 0.67963,-0.16354 0.82805,-0.84864 z m 0.0481,-3.38626 c -0.15867,-1.1021 -0.10584,-1.15937 0.75616,-0.81928 0.73541,0.29015 0.90318,0.95674 0.35934,1.42768 -0.5946,0.51488 -0.98439,0.30228 -1.1155,-0.6084 z m 7.60421,3.51801 c 1.15838,-1.1921 1.30462,-3.61776 0.2983,-4.9477 -0.63843,-0.84373 -1.6153,-1.07909 -2.75992,-0.66496 -1.94851,0.705 -2.36768,3.69931 -0.80665,5.76236 0.66158,0.87434 2.34827,0.79708 3.26827,-0.1497 z m -2.12363,-0.83392 c -0.51959,-0.44993 -0.62542,-2.49558 -0.16743,-3.23659 0.37609,-0.60853 0.99606,-0.586 1.38941,0.0505 0.40972,0.66291 0.17751,2.75817 -0.35695,3.22098 -0.36617,0.31708 -0.46312,0.31318 -0.86503,-0.0348 z m 5.4352,1.01399 c 0.0914,-0.29525 0.17379,-0.91259 0.18315,-1.37187 l 0.0171,-0.83505 0.82656,1.38695 c 0.67287,1.12913 0.93933,1.37308 1.43323,1.31224 0.58584,-0.0722 0.60934,-0.18341 0.68359,-3.23601 l 0.0768,-3.16126 h -0.66467 c -0.68888,0 -0.97008,0.45907 -1.023,1.6701 -0.0255,0.58409 -0.19794,0.36425 -1.1448,-1.45963 -0.2008,-0.38682 -1.28815,-0.4394 -1.70062,-0.0822 -0.3487,0.30195 -0.44151,0.89699 -0.43855,2.81148 0.005,3.00393 0.14129,3.5021 0.96056,3.5021 0.41477,0 0.68035,-0.18031 0.79068,-0.53682 z m 8.24461,0.0566 c 0.16764,-0.55517 -0.48938,-0.95123 -1.57805,-0.95123 -1.003,0 -1.01806,-1.07357 -0.0182,-1.2909 0.44192,-0.0961 0.68881,-0.31748 0.68881,-0.61778 0,-0.30031 -0.24689,-0.52174 -0.68881,-0.61779 -0.49453,-0.10751 -0.6888,-0.31064 -0.6888,-0.7203 0,-0.50665 0.12353,-0.57059 1.10209,-0.57059 0.97875,0 1.10208,-0.0639 1.10208,-0.57095 0,-0.67433 -0.44785,-0.86058 -2.06927,-0.86058 -1.85166,0 -2.06422,0.32799 -2.05981,3.1783 0.006,3.56777 -0.0357,3.50211 2.20043,3.50211 1.63671,0 1.8821,-0.0586 2.00945,-0.48029 z m 2.39892,0.003 c 0.17068,-0.27617 0.57689,-0.47717 0.96433,-0.47717 0.38743,0 0.79365,0.201 0.96435,0.47717 0.16219,0.26245 0.5385,0.47717 0.83626,0.47717 0.70017,0 0.6945,-0.40963 -0.0505,-3.64908 -0.61891,-2.69092 -0.94502,-3.13774 -2.09936,-2.87634 -0.48327,0.10939 -0.71138,0.61299 -1.41466,3.12264 -0.46117,1.64571 -0.77254,3.08457 -0.69196,3.19748 0.27019,0.37856 1.19366,0.21024 1.49163,-0.27187 z m 0.82657,-2.51923 c 0,-0.34627 0.11926,-0.54672 0.27553,-0.46309 0.15154,0.0811 0.27552,0.35584 0.27552,0.61055 0,0.2547 -0.12398,0.46308 -0.27552,0.46308 -0.15155,0 -0.27553,-0.27474 -0.27553,-0.61054 z m 7.35248,2.47765 c 0.59725,-0.48587 0.6377,-0.69874 0.6377,-3.35629 0,-2.83245 -7.9e-4,-2.83722 -0.61993,-2.6725 -0.34096,0.0908 -0.68193,0.21407 -0.75769,0.27404 -0.0758,0.06 -0.18038,1.17394 -0.23246,2.47551 -0.0927,2.31789 -0.10833,2.36648 -0.75769,2.36648 -0.65075,0 -0.66298,-0.0393 -0.66298,-2.12777 0,-2.43799 -0.13121,-2.88253 -0.8508,-2.88253 -0.69708,0 -0.88009,0.76077 -0.76197,3.16741 0.12681,2.58337 0.59558,3.2744 2.22128,3.2744 0.79831,0 1.34066,-0.15765 1.78454,-0.51875 z M 458.03502,149.3367 c 0,-0.23987 -0.11911,-0.70739 -0.26469,-1.03894 -0.19157,-0.43634 -0.15399,-0.78656 0.13607,-1.26811 0.54773,-0.90931 0.50378,-1.71377 -0.1439,-2.63362 -0.53243,-0.75619 -0.59384,-0.77541 -2.47868,-0.77541 h -1.9327 v 2.72423 c 0,1.49833 0.0752,2.89405 0.16724,3.10161 0.0921,0.20757 0.46158,0.37741 0.82132,0.37741 0.48935,0 0.69617,-0.16525 0.82119,-0.65613 0.0919,-0.36085 0.19675,-0.76127 0.23297,-0.88982 0.0363,-0.12853 0.29568,0.0862 0.57655,0.47717 0.28088,0.391 0.68639,0.83773 0.90115,0.99274 0.51234,0.36982 1.16348,0.13974 1.16348,-0.41113 z m -2.75524,-3.5688 c 0,-0.78987 0.0913,-0.97377 0.45263,-0.91219 0.71216,0.12137 1.11717,0.83348 0.75628,1.32971 -0.167,0.22964 -0.50733,0.45225 -0.75628,0.49466 -0.36137,0.0616 -0.45263,-0.1223 -0.45263,-0.91218 z m 6.9974,3.96233 c 1.2026,-0.43511 1.54382,-1.31873 1.54382,-3.99793 v -2.11168 h -0.82657 -0.82658 v 2.23736 c 0,1.6977 -0.0996,2.30899 -0.41327,2.53437 -0.32973,0.23696 -0.49685,0.23696 -0.82658,0 -0.31359,-0.22538 -0.41327,-0.83667 -0.41327,-2.53437 v -2.23736 h -0.82658 -0.82657 v 2.15495 c 0,2.42584 0.451,3.69522 1.43426,4.03694 0.86172,0.29948 0.93462,0.29644 1.98134,-0.0822 z m 6.06741,0.18741 c 0.23971,-0.0797 0.43583,-0.33658 0.43583,-0.57095 0,-0.47142 -0.525,-0.71576 -1.53791,-0.71576 -0.96713,0 -0.94828,-1.07991 0.0226,-1.2909 0.9297,-0.20207 0.98285,-1.2642 0.0688,-1.37659 -0.39838,-0.049 -0.65139,-0.26808 -0.70797,-0.61306 -0.0745,-0.4543 0.039,-0.53682 0.73801,-0.53682 0.79689,0 1.69198,-0.51388 1.69198,-0.97139 0,-0.12185 -0.99188,-0.22155 -2.20418,-0.22155 h -2.2042 v 3.08414 c 0,2.73663 0.0543,3.09641 0.48218,3.19323 0.746,0.16881 2.72948,0.18092 3.21485,0.0196 z m -27.48385,-18.14679 c -0.39558,-0.34253 -0.15046,-1.03207 0.512,-1.44025 0.38263,-0.23577 1.67617,-1.62159 2.87455,-3.07961 2.23747,-2.72227 3.9236,-4.04303 7.72622,-6.05197 1.62526,-0.85863 4.92563,-1.9604 5.28936,-1.76574 0.1216,0.0651 0.22157,0.35355 0.22213,0.64107 0.002,0.70373 0.91296,1.95581 1.78356,2.44978 0.90555,0.51379 3.36542,0.51318 4.51394,-0.002 0.93857,-0.4203 2.24268,-1.91925 2.24268,-2.57777 0,-0.30112 0.2168,-0.42176 0.75769,-0.42169 1.31149,2.2e-4 5.74464,1.65042 6.21297,2.31273 0.12118,0.17139 0.36053,0.31161 0.53191,0.31161 0.5758,0 3.56334,2.96184 5.36158,5.31548 0.98044,1.28324 2.14465,2.56496 2.58717,2.84826 0.48552,0.31085 0.80454,0.73382 0.80454,1.06669 v 0.55159 h -20.61831 c -11.34007,0 -20.70097,-0.0716 -20.80199,-0.15906 z m 13.59247,-2.46538 c 0,-0.38629 -0.18368,-0.47718 -0.96433,-0.47718 -0.53038,0 -0.96434,-0.047 -0.96434,-0.10462 0,-0.0575 0.37261,-0.4578 0.82799,-0.88955 0.96552,-0.91538 1.2104,-1.4579 0.9944,-2.2031 -0.15103,-0.5211 -1.17603,-1.09731 -1.95196,-1.09731 -0.44821,0 -2.0746,1.13887 -2.0746,1.45271 0,0.35104 1.15582,0.24923 1.66048,-0.14625 0.51106,-0.40049 1.37027,-0.24296 1.37027,0.25123 0,0.17255 -0.61891,0.88576 -1.37536,1.58493 -1.94852,1.801 -1.86898,2.10627 0.54878,2.10627 1.74499,0 1.92867,-0.0454 1.92867,-0.47718 z m 3.98496,0.01 c 1.11786,-1.06962 0.737,-4.12209 -0.56792,-4.55171 -0.72219,-0.23776 -1.73675,-6.8e-4 -2.22957,0.52086 -0.60842,0.64392 -0.55713,3.57857 0.0721,4.12342 0.61037,0.52854 2.13027,0.47692 2.72543,-0.0925 z m -1.89066,-0.76339 c -0.24264,-0.29997 -0.44116,-0.87339 -0.44116,-1.27428 0,-0.40088 0.19852,-0.97429 0.44116,-1.27427 0.41952,-0.51866 0.46678,-0.52529 0.96432,-0.13539 0.35533,0.27844 0.52319,0.73074 0.52319,1.40966 0,0.67894 -0.16786,1.13124 -0.52319,1.40968 -0.49754,0.3899 -0.5448,0.38326 -0.96432,-0.1354 z m 7.62885,0.75371 c 0.0887,-0.2937 0.37582,-0.47717 0.74673,-0.47717 0.37092,0 0.65805,0.18347 0.74674,0.47717 0.0838,0.27736 0.37582,0.47717 0.69745,0.47717 0.61346,0 0.61905,0.0779 -0.23713,-3.29381 -0.41946,-1.65185 -0.47979,-1.73919 -1.15344,-1.6701 -0.64965,0.0667 -0.76495,0.25769 -1.33976,2.22016 -0.34591,1.18101 -0.63199,2.28149 -0.63573,2.44552 -0.0113,0.49327 1.01953,0.33632 1.17514,-0.17894 z m 0.47121,-1.87473 c 0,-0.81503 0.52857,-1.28367 0.59237,-0.5252 0.0227,0.27018 0.0538,0.61651 0.0689,0.76959 0.0151,0.15309 -0.12744,0.32309 -0.31686,0.37775 -0.22491,0.0649 -0.34441,-0.15092 -0.34441,-0.62214 z m 3.30628,1.50936 c 0,-0.52883 0.15387,-0.89367 0.41328,-0.97987 0.74954,-0.24906 0.4646,-0.80204 -0.41328,-0.80204 -0.81822,0 -0.82658,0.0133 -0.82658,1.31222 0,1.00737 0.096,1.31223 0.4133,1.31223 0.28933,0 0.41328,-0.25267 0.41328,-0.84254 z m 1.92865,0.12444 c 0,-0.42284 0.22657,-0.88607 0.55106,-1.12666 0.79113,-0.58658 0.68141,-0.8208 -0.3444,-0.73515 -0.87322,0.0729 -0.89752,0.10584 -0.97874,1.32734 -0.0668,1.00405 0.002,1.25257 0.3444,1.25257 0.29183,0 0.42768,-0.2281 0.42768,-0.7181 z m 2.5486,0.5601 c -0.18943,-0.0662 -0.49939,-0.0662 -0.68882,0 -0.18941,0.0661 -0.0344,0.12033 0.34441,0.12033 0.37884,0 0.53383,-0.0541 0.34441,-0.12033 z m 0.0596,-1.89405 c -0.0507,-0.4725 -0.16911,-0.92569 -0.26308,-1.00708 -0.24344,-0.2108 -0.66292,0.44818 -0.52871,0.83058 0.0618,0.17592 0.17036,0.48091 0.24138,0.67774 0.25212,0.69881 0.64117,0.3445 0.55041,-0.50124 z m -12.18407,-2.12321 c -0.0769,-0.34817 -0.003,-0.59646 0.17598,-0.59646 0.16919,0 0.30764,0.10739 0.30764,0.23858 0,0.13122 0.15055,0.23859 0.33456,0.23859 0.20883,0 0.15705,-0.15371 -0.13776,-0.40901 -0.42487,-0.36791 -0.51487,-0.37215 -0.89572,-0.0424 -0.23955,0.20742 -0.34641,0.54045 -0.24606,0.76688 0.27326,0.61662 0.60927,0.47371 0.46136,-0.19622 z" id="path1-0"></path>
      <path style="opacity: .597; fill: #d40000; fill-opacity: 1; stroke-width: 6.5679px; stroke-linecap: round; stroke-opacity: .959294; paint-order: markers fill stroke" d="m 440.81054,131.49626 c -0.0742,-0.16764 0.25051,-0.63727 0.83453,-1.20668 0.52587,-0.51274 1.75913,-1.86264 2.74059,-2.9998 2.46264,-2.85335 4.72878,-4.58116 8.11153,-6.18459 1.41748,-0.67188 4.01543,-1.58175 4.51638,-1.58175 0.16697,0 0.33832,0.28966 0.4141,0.69994 0.15025,0.81365 0.83819,1.75817 1.66851,2.29084 0.81461,0.52257 3.01568,0.63344 4.27933,0.21555 1.05694,-0.34953 2.28268,-1.46784 2.64188,-2.41035 0.20517,-0.53834 0.32271,-0.61318 0.96297,-0.61318 0.9479,0 3.72366,0.93118 5.03633,1.68953 0.56682,0.32747 1.2117,0.68859 1.43304,0.80248 1.05496,0.54284 3.75247,3.27913 5.65248,5.73376 0.50583,0.65349 1.36411,1.59945 1.90728,2.10214 0.54319,0.50268 1.0535,1.09905 1.13405,1.32526 l 0.14646,0.41129 h -20.67893 c -18.19489,0 -20.69352,-0.0329 -20.80053,-0.27444 z m 13.27149,-1.73684 c 0.83391,-0.27455 0.60406,-0.78276 -0.45446,-1.00484 l -0.87128,-0.1828 0.70713,-0.70821 c 0.98863,-0.99016 1.25868,-1.76963 0.85013,-2.45376 -0.37658,-0.6306 -1.37792,-1.03995 -2.13922,-0.87449 -0.72695,0.15799 -2.10801,1.26836 -1.9146,1.53935 0.2043,0.28623 0.95965,0.25704 1.60417,-0.062 0.72898,-0.36085 1.26734,-0.34137 1.26291,0.0457 -0.002,0.17594 -0.57198,0.87987 -1.26658,1.56429 -1.43487,1.41386 -1.63749,2.06389 -0.68238,2.18918 1.14205,0.14981 2.35653,0.12789 2.90418,-0.0525 z m 4.26475,-0.29491 c 1.2379,-0.66834 1.03477,-4.27735 -0.26503,-4.70927 -0.65193,-0.21662 -1.74048,-0.11186 -2.20225,0.21193 -0.86443,0.60614 -1.05654,3.3437 -0.30654,4.3682 0.45678,0.62396 1.74612,0.68399 2.77382,0.12914 z m 5.95748,-0.0861 0.59526,-0.56435 0.67825,0.57414 c 0.72466,0.61341 1.12139,0.64254 1.24473,0.0914 0.12031,-0.53757 -0.85609,-4.29877 -1.19131,-4.58905 -0.28909,-0.25034 -0.99297,-0.19563 -1.37232,0.10661 -0.0909,0.0723 -0.45815,1.14228 -0.81625,2.37751 -0.53649,1.8506 -0.6003,2.27376 -0.36257,2.40417 0.45101,0.24741 0.58817,0.20255 1.22421,-0.40047 z m 3.59542,0.21077 c 0.12019,-0.19447 0.21853,-0.53877 0.21853,-0.76509 0,-0.22635 0.21372,-0.60855 0.47495,-0.84933 0.47226,-0.43531 0.47256,-0.43933 0.053,-0.70501 -0.2321,-0.14697 -0.65957,-0.24317 -0.94994,-0.21376 -0.4939,0.05 -0.53202,0.12876 -0.59156,1.22235 -0.035,0.64291 -0.0142,1.28041 0.0462,1.41667 0.15673,0.35369 0.49437,0.30598 0.7489,-0.10584 z m 1.86507,0.13422 c 0.1393,-0.12064 0.2533,-0.42135 0.2533,-0.66823 0,-0.24688 0.25018,-0.7329 0.55594,-1.08003 0.43689,-0.49601 0.49552,-0.66348 0.2738,-0.78215 -0.25052,-0.13407 -1.42659,-0.0449 -1.65677,0.1257 -0.0485,0.0359 -0.13123,0.51472 -0.18383,1.06391 -0.13455,1.40499 0.13417,1.8806 0.75756,1.3408 z m 2.63214,-0.0833 c -0.14292,-0.0501 -0.42789,-0.0531 -0.63328,-0.007 -0.2054,0.0464 -0.0885,0.0874 0.25984,0.0911 0.3483,0.003 0.51636,-0.0342 0.37344,-0.0843 z m 0.1125,-1.93482 c -0.0472,-0.70928 -0.15261,-0.97258 -0.40593,-1.01423 -0.2021,-0.0332 -0.38894,0.0987 -0.45654,0.3226 -0.16794,0.55613 0.23543,1.64958 0.60852,1.64958 0.25064,0 0.30427,-0.20235 0.25395,-0.95795 z m -12.13594,-2.03243 c -0.0218,-0.26549 0.0494,-0.48273 0.15832,-0.48273 0.10889,0 0.19806,0.0822 0.19806,0.1828 0,0.10052 0.14249,0.1828 0.31664,0.1828 0.43881,0 0.39557,-0.24708 -0.113,-0.64563 -0.41829,-0.32779 -0.44132,-0.32656 -0.87208,0.0464 -0.32851,0.28448 -0.40613,0.50842 -0.3014,0.86974 0.17833,0.61529 0.66669,0.49316 0.61346,-0.15342 z" id="path3"></path>
      <path style="opacity: .597; fill: red; stroke-width: 6.5679px; stroke-linecap: round; stroke-opacity: .959294; paint-order: markers fill stroke" d="m 456.7478,128.7217 c -0.35306,-0.35718 -0.61003,-0.96013 -0.60845,-1.42765 9.5e-4,-0.27939 0.11228,-0.70328 0.26064,-0.9926 0.14888,-0.29027 0.50957,-0.67723 0.63126,-0.67723 0.13533,0 0.62148,0.38708 0.73969,0.58894 0.17028,0.29078 0.22962,0.64478 0.20564,1.22687 -0.0208,0.50484 -0.0363,0.57277 -0.19176,0.84645 -0.1794,0.31553 -0.54794,0.62805 -0.74066,0.62805 -0.059,0 -0.19003,-0.0853 -0.29636,-0.19283 z" id="path4"></path>
      <path style="opacity: .597; fill: red; stroke-width: 6.5679px; stroke-linecap: round; stroke-opacity: .959294; paint-order: markers fill stroke" d="m 464.78675,127.97071 c -0.19285,-0.20123 -0.0812,-1.17101 0.15624,-1.35708 0.0882,-0.0691 0.10652,-0.07 0.16561,-0.008 0.0716,0.0747 0.15376,0.58318 0.15751,0.97474 0.002,0.19759 -0.0215,0.26259 -0.12723,0.35417 -0.1514,0.13112 -0.25157,0.14153 -0.35213,0.0366 z" id="path5"></path>
      <path style="opacity: .597; fill: red; stroke-width: 6.5679px; stroke-linecap: round; stroke-opacity: .959294; paint-order: markers fill stroke" d="m 455.39295,146.49713 c -0.0496,-0.10163 -0.0713,-0.33609 -0.069,-0.74262 0.005,-0.82573 0.0839,-0.95825 0.50696,-0.8485 0.48612,0.12612 0.85508,0.65238 0.73254,1.04484 -0.1072,0.34349 -0.5846,0.69478 -0.94409,0.69478 -0.12375,0 -0.16826,-0.0292 -0.2264,-0.1485 z" id="path6"></path>
      <path style="opacity: .597; fill: red; stroke-width: 6.5679px; stroke-linecap: round; stroke-opacity: .959294; paint-order: markers fill stroke" d="m 461.50831,162.16693 c -0.39705,-0.52475 -0.3831,-2.74114 0.0197,-3.12655 0.765,-0.73201 1.35132,0.0139 1.2519,1.59243 -0.10245,1.62614 -0.67723,2.31963 -1.2716,1.53412 z" id="path7"></path>
      <path style="opacity: .597; fill: red; stroke-width: 6.5679px; stroke-linecap: round; stroke-opacity: .959294; paint-order: markers fill stroke" d="m 456.23955,160.11706 c -0.23911,-0.54457 -0.18556,-1.34877 0.0898,-1.34877 0.25344,0 1.10801,0.67672 1.10801,0.87741 0,0.21526 -0.61149,0.80291 -0.8355,0.80291 -0.11921,0 -0.28227,-0.14919 -0.36232,-0.33155 z" id="path8"></path>
      <path style="opacity: .597; fill: red; stroke-width: 6.5679px; stroke-linecap: round; stroke-opacity: .959294; paint-order: markers fill stroke" d="m 478.58518,161.424 c -0.17969,-0.23749 -0.1838,-0.83286 -0.007,-0.96019 0.0456,-0.0327 0.0705,-0.029 0.13378,0.0206 0.26459,0.20735 0.32292,0.74197 0.10324,0.94617 -0.0948,0.0881 -0.16016,0.0862 -0.23042,-0.007 z" id="path9"></path>
    </g>
  </g>
</svg>
